<svg width="46" height="46" viewBox="0 0 46 46" fill="none" xmlns="http://www.w3.org/2000/svg">
    <path d="M40.8586 9.2687C40.5034 8.54636 39.9712 7.92571 39.3115 7.46461C38.6517 7.00351 37.886 6.71696 37.0856 6.6317C36.8654 6.60999 36.6442 6.60096 36.423 6.60466H35.0436L33.1098 6.61818L29.2423 6.65875L21.5206 6.72636L13.7989 6.78046L9.60137 6.76152C9.36142 6.76082 9.12178 6.77891 8.88465 6.81562C8.49789 6.84151 8.11834 6.93297 7.76224 7.08608C7.04809 7.3678 6.41253 7.8178 5.90958 8.39781C5.40804 8.99628 5.06817 9.71325 4.9224 10.4804C4.83621 10.9895 4.79998 11.5058 4.81421 12.022C4.82774 12.1978 4.78717 16.4035 4.78717 16.4035L4.72496 35.7008V37.7158C4.74218 38.024 4.84154 38.3219 5.01275 38.5787C5.18396 38.8355 5.42078 39.0418 5.69862 39.1763C5.95932 39.3031 6.24735 39.3635 6.53705 39.3521H35.4493C35.7333 39.3521 36.0579 39.3656 36.3959 39.3791C36.7746 39.3926 37.1803 39.4197 37.586 39.4197C38.1866 39.5056 38.7993 39.4336 39.3637 39.2107C39.928 38.9878 40.4246 38.6217 40.8045 38.1485C41.1464 37.4859 41.3007 36.7424 41.2507 35.9984L41.2372 35.2952C41.2101 33.8617 41.1831 32.3877 41.2237 30.9272C41.2642 28.6553 41.2913 26.3699 41.3183 24.0981L41.3454 21.2177V11.5676C41.3807 10.7724 41.2132 9.98131 40.8586 9.2687ZM6.3883 11.9003C6.37211 11.5257 6.38568 11.1503 6.42886 10.7779C6.53211 10.2662 6.75968 9.78788 7.09149 9.385C7.42055 8.98596 7.84335 8.67467 8.32209 8.47895C8.76974 8.32424 9.24148 8.25096 9.71497 8.26258L13.7989 8.2761L21.5206 8.31667C26.6323 8.37077 31.7575 8.42486 36.8828 8.4519C37.3686 8.51678 37.8307 8.70156 38.2273 8.98958C38.6239 9.27759 38.9426 9.65979 39.1546 10.1017C39.3651 10.5587 39.4625 11.0596 39.4386 11.5622L39.4657 14.091L6.41534 14.1316L6.40182 12.5494C6.40182 12.3384 6.40182 12.1221 6.3883 11.9003ZM37.924 37.5941L7.60537 37.5129C7.30675 37.5119 7.02045 37.3937 6.80804 37.1839C6.59562 36.974 6.47404 36.6891 6.46943 36.3905L6.45591 24.1251L6.41534 15.7814L39.4386 15.7543V21.2177C39.4522 23.4895 39.5198 25.7479 39.5739 28.0062C39.655 30.8325 39.7497 33.7535 39.7226 36.6204C39.7226 37.3155 39.1952 37.5941 37.924 37.5941Z" fill="#828A90"/>
    <path d="M39.7226 36.6258C39.7226 37.3155 39.1952 37.5995 37.924 37.5995L7.60537 37.5184C7.30675 37.5173 7.02046 37.3992 6.80804 37.1893C6.59562 36.9794 6.47404 36.6945 6.46944 36.3959L6.45591 24.1305L6.41534 15.7868L39.4386 15.7598V21.2231C39.4521 23.4949 39.5198 25.7533 39.5739 28.0116C39.655 30.8326 39.7497 33.7589 39.7226 36.6258Z" fill="white"/>
    <path d="M39.4657 14.0964L6.41534 14.137L6.40181 12.5548C6.40181 12.3384 6.40181 12.122 6.38829 11.9057C6.37211 11.5311 6.38567 11.1557 6.42886 10.7833C6.5321 10.2716 6.75967 9.79328 7.09149 9.39039C7.42054 8.99136 7.84334 8.68007 8.32208 8.48435C8.76973 8.32964 9.24147 8.25636 9.71496 8.26798L13.7989 8.2815L21.5206 8.32207C26.6323 8.37616 31.7575 8.43026 36.8828 8.4573C37.3686 8.52218 37.8307 8.70696 38.2273 8.99497C38.6239 9.28299 38.9426 9.66519 39.1546 10.1071C39.3651 10.5641 39.4625 11.065 39.4386 11.5676L39.4657 14.0964Z" fill="#DAF0ED"/>
</svg>
