<svg width="39" height="39" viewBox="0 0 39 39" fill="none" xmlns="http://www.w3.org/2000/svg">
    <path d="M34.5664 3.84084C34.5534 6.64064 34.5454 9.44006 34.5423 12.2391C34.5408 12.3673 34.4893 12.4898 34.3986 12.5804C34.308 12.671 34.1855 12.7226 34.0574 12.7241C31.324 12.7183 28.5609 12.8078 25.8276 12.6461C25.7551 12.675 25.6765 12.6858 25.5988 12.6775C25.5212 12.6692 25.4467 12.642 25.3818 12.5984C25.317 12.5548 25.2638 12.4961 25.2268 12.4273C25.1898 12.3585 25.1701 12.2817 25.1695 12.2036C25.1695 9.41599 25.1653 6.62841 25.1569 3.84084C25.159 3.70811 25.2127 3.58141 25.3067 3.48765C25.4007 3.39388 25.5275 3.34044 25.6602 3.33867C28.4585 3.33332 31.2576 3.33332 34.0574 3.33867C34.191 3.33925 34.3191 3.39212 34.4143 3.48598C34.5094 3.57984 34.564 3.70722 34.5664 3.84084ZM33.5793 11.7518L33.5609 4.34073C31.0913 4.34073 28.6251 4.33882 26.1624 4.33499C26.1571 6.82906 26.1529 9.32312 26.1498 11.8172C28.6206 11.6945 31.1085 11.7484 33.5793 11.7553V11.7518Z" fill="#828A90"/>
    <path d="M23.504 4.01286L23.504 12.0384C17.0221 12.0384 10.4945 11.8838 4.01255 12.0385C4.01255 8.97783 3.99755 7.07212 4.01259 4.01286C10.4764 4.01286 17.0251 4.0199 23.504 4.01286Z" fill="#DAF0ED"/>
    <path d="M23.9175 3.94174C23.9045 6.74154 23.8965 9.54095 23.8935 12.34C23.892 12.4682 23.8404 12.5906 23.7498 12.6813C23.6591 12.7719 23.5366 12.8235 23.4085 12.825C20.6752 12.8181 6.84358 12.9087 4.11027 12.7527C4.03722 12.7809 3.9584 12.791 3.8806 12.782C3.8028 12.7731 3.72833 12.7453 3.66361 12.7013C3.59888 12.6572 3.54582 12.598 3.509 12.5289C3.47217 12.4598 3.45267 12.3828 3.45217 12.3044C3.45217 9.51764 3.44797 6.73007 3.43956 3.94174C3.44277 3.80936 3.49687 3.68332 3.5906 3.5898C3.68434 3.49628 3.8105 3.44247 3.94288 3.43956C6.74154 3.43956 20.6098 3.43956 23.4085 3.43956C23.5418 3.44129 23.6692 3.49454 23.7641 3.58816C23.859 3.68177 23.914 3.80848 23.9175 3.94174ZM22.9304 11.8527L22.912 4.44276C20.4424 4.4485 6.91351 4.44276 4.44506 4.44276C4.44506 6.93644 4.43245 9.42439 4.43245 11.9192C6.9032 11.7954 20.4596 11.855 22.9304 11.855V11.8527Z" fill="#828A90"/>
    <path d="M33.5609 4.34416L33.5793 11.7553C31.1085 11.7484 28.6206 11.6888 26.1498 11.8206C26.1498 9.32655 26.154 6.83249 26.1624 4.33842C28.6267 4.34454 31.0928 4.34645 33.5609 4.34416Z" fill="#DAF0ED"/>
    <path d="M12.8422 14.2604L12.8238 22.6587C12.8223 22.7866 12.7709 22.909 12.6805 22.9996C12.5902 23.0902 12.468 23.1419 12.34 23.1436C9.60554 23.1368 6.84243 23.2273 4.10913 23.0714C4.03607 23.0996 3.95725 23.1097 3.87945 23.1007C3.80165 23.0917 3.72719 23.064 3.66246 23.0199C3.59773 22.9758 3.54468 22.9167 3.50785 22.8476C3.47102 22.7785 3.45152 22.7014 3.45103 22.6231C3.45103 19.8363 3.4472 17.0487 3.43956 14.2604C3.44248 14.1281 3.49633 14.0021 3.58988 13.9086C3.68343 13.815 3.80947 13.7612 3.94174 13.7582C6.74154 13.7582 9.54019 13.7582 12.34 13.7582C12.4726 13.76 12.5993 13.8135 12.6931 13.9073C12.7869 14.0011 12.8404 14.1278 12.8422 14.2604ZM11.855 22.1714L11.8344 14.7637C9.3705 14.7695 6.90434 14.7637 4.44162 14.7637C4.44162 17.2574 4.43015 19.7454 4.43015 22.2402C6.90434 22.1141 9.38426 22.1737 11.855 22.1737V22.1714Z" fill="#828A90"/>
    <path d="M11.8344 14.7637L11.8527 22.1737C9.38196 22.1737 6.89975 22.1141 4.43015 22.2402C4.43015 19.7454 4.43588 17.2574 4.44161 14.7637C6.90433 14.7637 9.37279 14.7695 11.8344 14.7637Z" fill="#DAF0ED"/>
    <path d="M12.6897 24.469C12.6843 27.2688 12.6763 30.0682 12.6656 32.8673C12.6644 32.9943 12.6139 33.116 12.5247 33.2065C12.4355 33.297 12.3146 33.3493 12.1875 33.3522C9.44846 33.3454 6.68421 33.4359 3.9509 33.28C3.87784 33.3079 3.7991 33.3178 3.72141 33.3087C3.64371 33.2996 3.56937 33.2719 3.50472 33.2278C3.44007 33.1838 3.38704 33.1248 3.35014 33.0558C3.31323 32.9868 3.29356 32.9099 3.2928 32.8317C3.2928 30.0449 3.2928 27.2573 3.2928 24.469C3.29302 24.3374 3.3443 24.2111 3.43583 24.1165C3.52736 24.022 3.65201 23.9667 3.78351 23.9622C6.58331 23.9622 9.3877 23.9622 12.1875 23.9622C12.3205 23.9652 12.4473 24.0197 12.5409 24.1142C12.6346 24.2087 12.6879 24.3359 12.6897 24.469ZM11.7025 32.38L11.6853 24.97C9.22031 24.9758 6.75529 24.97 4.28569 24.97C4.28569 27.4637 4.28569 29.9517 4.27422 32.4465C6.74382 32.3227 9.23292 32.3823 11.7025 32.3823V32.38Z" fill="#828A90"/>
    <path d="M11.6853 24.9723L11.7025 32.3823C9.23293 32.3823 6.74383 32.3227 4.27423 32.4488C4.27423 29.954 4.27423 27.466 4.2857 24.9723C6.75071 24.9723 9.22032 24.9781 11.6853 24.9723Z" fill="#DAF0ED"/>
    <path d="M29.9246 15.4034L29.9246 15.4034C29.6036 15.338 29.273 15.3048 28.9425 15.3048C27.979 15.3048 27.0418 15.5862 26.2314 16.1197C25.7429 16.4413 25.3133 16.845 24.959 17.3124L24.6405 17.7327L24.3216 17.3126C23.9675 16.8461 23.5382 16.4432 23.0502 16.1223C22.2402 15.5895 21.3036 15.3085 20.3409 15.3085C19.5407 15.3085 18.7348 15.513 18.0121 15.9014C17.29 16.2895 16.6628 16.855 16.1997 17.5358L16.1997 17.5358C15.725 18.2337 15.4361 19.0139 15.3404 19.8583L29.9246 15.4034ZM29.9246 15.4034C30.775 15.5768 31.5807 15.9854 32.2526 16.5883C32.9241 17.1907 33.4318 17.9599 33.7207 18.8119L34.0995 18.6834M29.9246 15.4034L34.0995 18.6834M34.0995 18.6834L33.7207 18.8119C33.9321 19.4351 34.0231 20.1077 33.9884 20.813C33.9258 22.0809 33.4702 23.4638 32.5614 25.0505L32.9085 25.2493L32.5614 25.0505C30.9873 27.7988 28.4542 30.2966 24.7837 32.6799L24.6417 32.7722L24.4996 32.6799C21.5168 30.7431 19.2914 28.7273 17.6794 26.5206C16.934 25.5001 15.97 23.9421 15.5375 22.2529C15.3202 21.4043 15.2564 20.5993 15.3404 19.8583L34.0995 18.6834Z" fill="#DAF0ED" stroke="#828A90" stroke-width="0.8"/>
</svg>
