<svg width="42" height="42" viewBox="0 0 42 42" fill="none" xmlns="http://www.w3.org/2000/svg">
    <path d="M5.59446 34.2621C6.01303 34.2621 6.44024 34.2892 6.85387 34.3139C7.23292 34.3386 7.5947 34.3621 7.93671 34.3621C12.3496 34.3621 17.3366 34.3892 22.3446 34.4164C27.5921 34.4423 32.8619 34.4695 37.5204 34.4707C37.4599 31.5346 37.4328 28.596 37.4192 25.6549C33.5385 29.0293 27.5798 29.5393 24.3312 29.5393C23.6707 29.5393 23.0237 29.5195 22.4001 29.4813C19.6406 29.3183 16.2883 28.4848 16.0019 25.4524C15.845 23.7868 16.8081 22.4323 18.7985 21.5013C13.5263 22.2965 8.73434 25.0474 4.70423 27.6749C4.66966 27.6984 4.6318 27.7167 4.59187 27.7292V28.2342C4.59187 28.8343 4.60299 29.4393 4.61533 30.0467C4.66734 31.4805 4.64467 32.9159 4.54742 34.3473C4.89345 34.2897 5.24368 34.2612 5.59446 34.2621ZM21.016 21.731C19.8256 21.9668 18.7166 22.507 17.7971 23.299C17.5246 23.5624 17.3135 23.8826 17.1788 24.2369C17.0441 24.5912 16.9893 24.9708 17.018 25.3487C17.0674 25.7727 17.2081 26.1811 17.4304 26.5456C17.6527 26.9101 17.9514 27.222 18.3058 27.46C19.8252 28.327 21.5678 28.7232 23.3126 28.5984C23.9299 28.5984 24.5263 28.5762 25.0844 28.5552L25.3079 28.5453C23.9692 28.0018 22.8348 27.0517 22.0648 25.8291C21.2948 24.6066 20.928 23.1731 21.016 21.731ZM20.2542 20.4962C20.6843 20.4605 21.1151 20.557 21.4889 20.7728C21.6349 20.8845 21.7479 21.0335 21.8162 21.2041C21.8844 21.3747 21.9053 21.5606 21.8766 21.7421C21.8766 21.8334 21.8766 21.926 21.8766 22.0248C21.9094 22.531 21.9821 23.0339 22.0939 23.5287C22.3039 24.4998 22.7481 25.4048 23.3879 26.1648C23.499 26.2883 23.6151 26.4118 23.7373 26.5352C24.6197 27.3205 25.6848 27.8724 26.8352 28.1404C27.1661 28.2288 27.5077 28.2703 27.8502 28.2638C28.6852 28.2286 29.5135 28.0993 30.3196 27.8786C32.8993 27.2738 35.3295 26.1523 37.4636 24.5819C37.4019 21.4198 37.4093 18.1614 37.418 14.8931C37.4229 12.4624 37.4258 10.0341 37.4266 7.60831H34.0657C25.0609 7.61695 13.6831 7.61695 4.59805 7.61695V26.6439C7.97108 24.2682 11.7038 22.4497 15.6537 21.2581C16.7984 20.9284 17.9696 20.6992 19.1541 20.5728C19.5176 20.5285 19.8831 20.5029 20.2493 20.4962H20.2542Z" fill="#828A90"/>
    <path d="M21.1605 21.5569C19.8844 21.798 18.693 22.3669 17.7033 23.2077C17.4046 23.5059 17.1778 23.8682 17.0398 24.2671C16.9019 24.666 16.8566 25.0911 16.9073 25.5101C16.958 25.9291 17.1033 26.3311 17.3324 26.6856C17.5614 27.0401 17.8681 27.3379 18.2293 27.5563C20.0949 28.8738 22.9483 28.7552 25.1437 28.6676C25.382 28.6589 25.6141 28.6441 25.8524 28.6268C24.382 28.159 23.1154 27.2032 22.2622 25.9175C21.409 24.6319 21.0203 23.0935 21.1605 21.5569ZM37.5414 25.3845C33.7138 28.8837 27.3439 29.6603 22.4137 29.364C19.9443 29.217 16.4192 28.4898 16.1303 25.445C15.9204 23.2077 17.8045 21.9507 19.7109 21.2605C14.2152 21.8409 9.23068 24.5807 4.64743 27.5662C4.59793 27.6008 4.53863 27.6185 4.47827 27.6168V28.2342C4.47827 30.306 4.61533 32.4322 4.41901 34.4991C5.59003 34.3849 6.76938 34.3849 7.94041 34.4991C17.0217 34.4991 28.5268 34.609 37.6501 34.609C37.5822 31.5259 37.555 28.4527 37.5414 25.3795V25.3845ZM21.4124 20.8667C21.847 21.1865 21.7235 21.5655 21.7556 22.0273C21.7897 22.5401 21.8632 23.0494 21.9754 23.5509C22.1917 24.5406 22.6451 25.463 23.2965 26.2389C23.4114 26.3624 23.5299 26.4957 23.6534 26.6093C24.5498 27.4106 25.6334 27.9736 26.8044 28.2465C28.0268 28.4507 29.2806 28.3549 30.4579 27.9675C33.0141 27.3613 35.4215 26.2446 37.5352 24.6844C37.5167 18.9504 37.5538 13.2114 37.5488 7.48114H34.0657C25.0202 7.49102 13.5793 7.49102 4.47457 7.49102V26.876C7.8891 24.4467 11.676 22.5889 15.687 21.3754C16.8254 21.0482 17.9899 20.8202 19.1677 20.6938C19.9167 20.5314 20.697 20.5914 21.4124 20.8667Z" fill="#828A90"/>
    <path d="M38.3995 35.1017C38.4008 35.1701 38.3815 35.2373 38.344 35.2945C38.3066 35.3518 38.2528 35.3964 38.1896 35.4227C38.1389 35.4574 38.0782 35.4748 38.0168 35.4721C37.3747 35.4721 36.6956 35.4597 36.0042 35.435C35.3128 35.4103 34.646 35.4103 34.004 35.4103C28.2872 35.4227 22.6816 35.4474 17.076 35.4474H16.755C14.6684 35.4474 12.6187 35.4227 10.5444 35.398C8.63061 35.3856 6.69211 35.3609 4.64249 35.3486C4.46963 35.3486 3.4942 35.3239 3.4942 35.3239V35.2128C3.4942 35.2128 3.4942 32.6322 3.50655 31.9408C3.5189 31.4222 3.54359 30.9036 3.56828 30.3851C3.60533 29.5948 3.64237 28.817 3.64237 28.0391C3.64237 26.8661 3.60533 25.6931 3.56828 24.5202C3.53124 23.3472 3.50655 22.1619 3.50655 20.9889V7.01193C3.50655 6.88422 3.55728 6.76174 3.64759 6.67143C3.73789 6.58113 3.86038 6.5304 3.98809 6.5304H7.95152C17.1131 6.5304 28.8676 6.5304 38.0291 6.54274C38.1536 6.54274 38.2729 6.59217 38.3609 6.68017C38.4489 6.76816 38.4983 6.8875 38.4983 7.01193C38.4983 9.44432 38.4983 11.9137 38.5107 14.3832C38.523 21.2371 38.5428 28.3107 38.3995 35.1017Z" fill="#828A90"/>
    <path d="M21.1605 21.5569C21.0192 23.0943 21.4074 24.6338 22.2606 25.9205C23.1139 27.2072 24.3812 28.1638 25.8524 28.6318C25.6141 28.649 25.382 28.6639 25.1437 28.6725C22.9484 28.7552 20.095 28.8738 18.2293 27.5613C17.8682 27.3428 17.5615 27.0451 17.3324 26.6906C17.1034 26.336 16.958 25.934 16.9073 25.515C16.8567 25.096 16.902 24.671 17.0399 24.272C17.1778 23.8731 17.4047 23.5108 17.7033 23.2126C18.6925 22.37 19.884 21.7994 21.1605 21.5569Z" fill="white"/>
    <path d="M37.5415 25.3795C37.555 28.4527 37.5822 31.5259 37.6464 34.5942C28.5231 34.5942 17.0181 34.4892 7.93675 34.4843C6.87983 34.4843 4.41534 34.4843 4.41534 34.4843C4.41534 34.4843 4.47461 30.2863 4.47461 28.2194V27.602C4.53497 27.6037 4.59427 27.586 4.64377 27.5514C9.23073 24.5658 14.2153 21.826 19.7073 21.2457C17.8009 21.9359 15.9167 23.1928 16.1266 25.4301C16.4155 28.4749 19.9456 29.2022 22.4101 29.3491C27.344 29.6553 33.7139 28.8787 37.5415 25.3795Z" fill="white"/>
    <path d="M37.5501 7.48114C37.5501 13.2114 37.518 18.9504 37.5365 24.6844C35.4232 26.2482 33.0154 27.3683 30.4579 27.9774C29.2806 28.3648 28.0269 28.4605 26.8044 28.2564C25.6334 27.9835 24.5499 27.4205 23.6534 26.6192C23.5299 26.4957 23.4065 26.3723 23.2966 26.2488C22.6451 25.4729 22.1918 24.5505 21.9754 23.5608C21.8632 23.0593 21.7897 22.5499 21.7557 22.0372C21.7236 21.5754 21.847 21.1963 21.4124 20.8765C20.6976 20.5993 19.9174 20.537 19.1677 20.6975C17.99 20.8239 16.8254 21.0519 15.687 21.3791C11.6761 22.5926 7.88914 24.4504 4.47461 26.8797V7.49102C13.5794 7.49102 25.0202 7.49102 34.0657 7.48114H37.5501ZM34.0781 16.4353C35.8166 13.614 33.7361 10.3531 30.1591 10.5963C29.6753 10.5835 29.1938 10.6669 28.7425 10.8415C28.2912 11.0162 27.879 11.2787 27.5299 11.6138C27.1807 11.9489 26.9016 12.35 26.7086 12.7938C26.5156 13.2376 26.4126 13.7153 26.4056 14.1992C26.3543 14.7022 26.404 15.2104 26.5517 15.694C26.6995 16.1775 26.9423 16.6267 27.2659 17.0152C27.5895 17.4037 27.9874 17.7236 28.4363 17.9563C28.8852 18.1889 29.3761 18.3296 29.8801 18.3701C30.6897 18.4611 31.5088 18.3289 32.2488 17.9879C32.9887 17.6468 33.6213 17.1099 34.0781 16.4353Z" fill="#DAF0ED"/>
    <path d="M33.1693 16.376C33.4435 16.0702 33.6485 15.7088 33.7702 15.3165C33.8918 14.9241 33.9274 14.5102 33.8744 14.1029C33.7475 13.3129 33.3361 12.5965 32.7178 12.0887C32.0994 11.5809 31.3168 11.3167 30.5172 11.3458C30.4024 11.3458 30.2838 11.3458 30.1702 11.3594C29.7878 11.3485 29.4071 11.4136 29.05 11.5508C28.6929 11.6879 28.3665 11.8945 28.0897 12.1586C27.8129 12.4226 27.5911 12.7389 27.4373 13.0892C27.2834 13.4394 27.2005 13.8167 27.1933 14.1992C27.1469 14.5978 27.1801 15.0016 27.2909 15.3872C27.4017 15.7729 27.588 16.1327 27.839 16.4458C28.0899 16.7589 28.4006 17.0191 28.7529 17.2112C29.1051 17.4033 29.4921 17.5236 29.8912 17.565C30.0147 17.5737 30.1381 17.5786 30.2616 17.5786C30.803 17.5896 31.3408 17.4884 31.8413 17.2814C32.3417 17.0745 32.7939 16.7662 33.1693 16.376ZM30.1554 10.5963C33.7361 10.3494 35.8129 13.6139 34.0744 16.4353C33.6176 17.1099 32.985 17.6468 32.2451 17.9879C31.5051 18.3289 30.686 18.461 29.8764 18.3701C29.3727 18.3291 28.8823 18.1881 28.4338 17.9552C27.9853 17.7224 27.5878 17.4024 27.2646 17.0139C26.9413 16.6255 26.6989 16.1765 26.5514 15.6931C26.4039 15.2098 26.3543 14.7019 26.4056 14.1992C26.4126 13.7156 26.5155 13.2382 26.7082 12.7947C26.901 12.3511 27.1798 11.9502 27.5286 11.6151C27.8773 11.2801 28.289 11.0175 28.7399 10.8426C29.1908 10.6677 29.6719 10.584 30.1554 10.5963Z" fill="#828A90"/>
    <path d="M33.941 14.0955C33.9954 14.5109 33.9593 14.9332 33.8353 15.3335C33.7112 15.7337 33.5022 16.1024 33.2224 16.4143C32.8403 16.8133 32.3798 17.1289 31.8698 17.3414C31.3599 17.5539 30.8115 17.6586 30.2591 17.649C30.1282 17.649 30.0023 17.649 29.8763 17.6342C29.469 17.5926 29.074 17.4704 28.7144 17.2747C28.3547 17.079 28.0376 16.8137 27.7814 16.4943C27.5253 16.1748 27.3353 15.8076 27.2224 15.414C27.1096 15.0204 27.0762 14.6083 27.1242 14.2017C27.1309 13.811 27.215 13.4256 27.3717 13.0677C27.5284 12.7098 27.7546 12.3866 28.0371 12.1167C28.3196 11.8469 28.6528 11.6357 29.0175 11.4955C29.3822 11.3554 29.771 11.2889 30.1616 11.3001C30.2776 11.2902 30.3986 11.2853 30.5159 11.2853C31.3314 11.2553 32.1296 11.5244 32.7604 12.042C33.3913 12.5596 33.8111 13.2899 33.941 14.0955Z" fill="white"/>
</svg>
