<svg width="43" height="43" viewBox="0 0 43 43" fill="none" xmlns="http://www.w3.org/2000/svg">
    <path d="M21.7427 5.76813C20.3629 5.76664 18.9964 6.03707 17.7212 6.56396C16.4461 7.09086 15.2872 7.86389 14.3109 8.83888C13.3346 9.81386 12.5601 10.9717 12.0315 12.2462C11.5029 13.5207 11.2307 14.8868 11.2303 16.2666C11.2303 20.7314 17.4245 31.0832 20.2928 35.6656C20.4473 35.9081 20.6605 36.1077 20.9126 36.246C21.1647 36.3843 21.4476 36.4568 21.7351 36.4568C22.0226 36.4568 22.3055 36.3843 22.5577 36.246C22.8098 36.1077 23.0229 35.9081 23.1775 35.6656C26.047 31.0832 32.2399 20.7314 32.2399 16.2666C32.2407 14.8878 31.9698 13.5223 31.4425 12.2483C30.9153 10.9743 30.1422 9.81667 29.1672 8.84165C28.1923 7.86663 27.0348 7.09333 25.7609 6.56595C24.4869 6.03857 23.1215 5.76747 21.7427 5.76813ZM21.7427 20.9665C20.9049 20.9698 20.0851 20.7243 19.3869 20.2613C18.6888 19.7982 18.1438 19.1384 17.8209 18.3653C17.4981 17.5923 17.4119 16.7408 17.5733 15.9187C17.7348 15.0967 18.1366 14.341 18.7278 13.7475C19.319 13.154 20.0731 12.7493 20.8945 12.5846C21.7159 12.42 22.5678 12.5028 23.3421 12.8227C24.1164 13.1425 24.7783 13.6849 25.2441 14.3813C25.7099 15.0776 25.9585 15.8965 25.9585 16.7343C25.9582 17.8538 25.5144 18.9276 24.7244 19.7208C23.9343 20.5139 22.8622 20.9619 21.7427 20.9665Z" fill="#DAF0ED"/>
    <path d="M19.8225 13.6815C19.8352 13.6688 19.8352 13.6815 19.8352 13.6815C19.8352 13.6848 19.8338 13.688 19.8314 13.6904C19.8291 13.6928 19.8259 13.6941 19.8225 13.6941V13.6815Z" fill="#828A90"/>
    <path d="M19.8604 13.6524C19.8604 13.665 19.8478 13.665 19.8351 13.6777C19.8361 13.668 19.8406 13.659 19.8478 13.6524H19.8604Z" fill="#828A90"/>
    <path d="M19.9616 13.6056L19.9489 13.6183V13.6056H19.9616Z" fill="#828A90"/>
    <path d="M20.2144 13.4792C20.2048 13.4806 20.1959 13.485 20.1891 13.4919C20.1841 13.4966 20.1781 13.5003 20.1715 13.5024C20.165 13.5046 20.158 13.5053 20.1512 13.5045C20.1285 13.5143 20.1072 13.527 20.088 13.5424H20.0753C20.0975 13.5213 20.1231 13.5042 20.1512 13.4919C20.1764 13.4792 20.1891 13.4666 20.2144 13.4792Z" fill="#828A90"/>
    <path d="M20.3522 13.3996H20.3648C20.3522 13.4122 20.3395 13.4122 20.3269 13.4249C20.3143 13.4375 20.289 13.4375 20.2763 13.4501C20.2637 13.4628 20.2637 13.4628 20.2511 13.4628H20.2258C20.2622 13.4319 20.3056 13.4102 20.3522 13.3996Z" fill="#828A90"/>
    <path d="M20.3914 13.3907C20.3914 13.3781 20.404 13.3907 20.404 13.3907C20.404 13.3941 20.4027 13.3973 20.4003 13.3997C20.3979 13.402 20.3947 13.4034 20.3914 13.4034H20.3787L20.3914 13.3907Z" fill="#828A90"/>
    <path d="M24.841 14.9329C24.3865 14.1831 23.6846 13.6154 22.8564 13.3275C22.8437 13.3149 22.8437 13.3149 22.8311 13.3149C22.8021 13.3048 22.7726 13.2963 22.7426 13.2896C22.7278 13.2795 22.7099 13.2751 22.692 13.277C22.6452 13.2526 22.5932 13.2396 22.5403 13.239C22.5277 13.2264 22.5277 13.2264 22.5151 13.2264C22.5024 13.2264 22.4645 13.2137 22.4392 13.2137C22.437 13.2109 22.4341 13.2085 22.4308 13.2069C22.4275 13.2053 22.4239 13.2045 22.4203 13.2045C22.4166 13.2045 22.413 13.2053 22.4097 13.2069C22.4064 13.2085 22.4035 13.2109 22.4013 13.2137H22.3887C22.3818 13.2069 22.373 13.2024 22.3634 13.2011H22.3507C22.3381 13.1885 22.3381 13.1885 22.3254 13.2011H22.3128C22.3128 13.1885 22.3002 13.1885 22.2875 13.1885H22.2622C22.2297 13.1774 22.1953 13.1731 22.1611 13.1758C22.1155 13.1659 22.0688 13.1616 22.0221 13.1632H21.9336C21.9076 13.1663 21.8813 13.1619 21.8577 13.1505H21.8451C21.8198 13.1632 21.8072 13.1505 21.7945 13.1505H21.706C21.6718 13.1485 21.6375 13.1528 21.6049 13.1632H21.4899C21.4721 13.1613 21.4541 13.1658 21.4393 13.1758H21.3255C21.3061 13.186 21.2842 13.1904 21.2623 13.1885H21.237C21.2222 13.1985 21.2043 13.203 21.1865 13.2011H21.1486C21.1307 13.1992 21.1128 13.2037 21.098 13.2137H21.0601C21.0341 13.2118 21.0081 13.2161 20.9842 13.2264C20.9774 13.2256 20.9704 13.2263 20.9638 13.2285C20.9573 13.2306 20.9513 13.2343 20.9463 13.239C20.8989 13.2401 20.852 13.2487 20.8073 13.2643C20.725 13.282 20.6446 13.3074 20.5671 13.3402C20.5458 13.3431 20.5247 13.3473 20.5039 13.3528C20.4989 13.3576 20.4929 13.3612 20.4863 13.3634C20.4798 13.3656 20.4728 13.3663 20.4659 13.3654C20.4786 13.3528 20.4912 13.3402 20.5039 13.3402C20.6265 13.2907 20.7535 13.2526 20.8831 13.2264C20.8957 13.2138 20.8957 13.2011 20.9084 13.2137C21.0369 13.1814 21.168 13.1602 21.3003 13.1505C21.3255 13.1505 21.3508 13.1379 21.3761 13.1505C21.4388 13.1404 21.5023 13.1362 21.5657 13.1379C21.568 13.135 21.5708 13.1327 21.5741 13.1311C21.5774 13.1295 21.581 13.1286 21.5847 13.1286C21.5883 13.1286 21.5919 13.1295 21.5952 13.1311C21.5985 13.1327 21.6014 13.135 21.6036 13.1379C21.6832 13.1274 21.7636 13.1232 21.8438 13.1253C22.2481 13.1231 22.6484 13.2049 23.0194 13.3654H23.0321C23.0447 13.3781 23.0447 13.3781 23.0574 13.3781C23.0842 13.3807 23.1102 13.3893 23.1332 13.4034L23.1459 13.416C23.1964 13.4413 23.2343 13.4539 23.2849 13.4792C23.3305 13.4925 23.3733 13.5139 23.4113 13.5424C23.4366 13.5551 23.4745 13.5677 23.4998 13.5803C23.522 13.6015 23.5476 13.6186 23.5757 13.6309C23.6104 13.6502 23.6442 13.6713 23.6768 13.6941C23.788 13.7615 23.8936 13.8376 23.9928 13.9217C24.1651 14.0646 24.3257 14.221 24.4732 14.3894C24.519 14.4368 24.5612 14.4875 24.5996 14.5411C24.6486 14.5873 24.6873 14.6433 24.7134 14.7054C24.7389 14.7361 24.7601 14.7701 24.7766 14.8065C24.8021 14.8372 24.8233 14.8713 24.8398 14.9077L24.841 14.9329Z" fill="#828A90"/>
    <path d="M24.8663 14.9582V14.9709C24.8537 14.9582 24.8537 14.9456 24.8411 14.9329C24.8663 14.9329 24.8663 14.9456 24.8663 14.9582Z" fill="#828A90"/>
    <path d="M25.3214 16.4246L25.3088 16.412C25.2944 16.3756 25.2858 16.3372 25.2835 16.2982C25.2433 15.8805 25.1277 15.4736 24.9422 15.0973C24.9422 15.0956 24.9419 15.094 24.9412 15.0924C24.9406 15.0909 24.9397 15.0895 24.9385 15.0883C24.9373 15.0872 24.9359 15.0862 24.9344 15.0856C24.9328 15.085 24.9312 15.0846 24.9295 15.0846C24.9295 15.072 24.9169 15.072 24.9169 15.0594C24.9171 15.0463 24.9137 15.0335 24.907 15.0223C24.9003 15.0111 24.8906 15.0021 24.879 14.9962C24.879 14.9835 24.8663 14.9835 24.8663 14.9709C24.9244 15.0389 24.9713 15.1157 25.0054 15.1984C25.018 15.2237 25.0307 15.2363 25.0307 15.2616C25.0541 15.2902 25.0674 15.3258 25.0686 15.3627L25.0812 15.3754C25.1052 15.4132 25.1184 15.457 25.1192 15.5018L25.1318 15.5144C25.1414 15.5244 25.1487 15.5364 25.1531 15.5495C25.1575 15.5626 25.1588 15.5766 25.1571 15.5903C25.1667 15.6002 25.174 15.6122 25.1784 15.6253C25.1827 15.6385 25.1841 15.6524 25.1824 15.6661C25.2181 15.7687 25.2435 15.8746 25.2582 15.9822V16.0074C25.2968 16.1433 25.3181 16.2834 25.3214 16.4246Z" fill="#828A90"/>
    <path d="M26.5349 16.1465C26.5404 16.2232 26.5319 16.3003 26.5097 16.374C26.4618 15.5715 26.2142 14.7937 25.7891 14.1113C26.2085 14.7143 26.4654 15.4152 26.5349 16.1465Z" fill="#828A90"/>
    <path d="M14.7408 27.4603C14.6144 27.258 14.5133 27.0558 14.3995 26.8409C13.641 25.3871 12.9078 23.9208 12.2631 22.3912C11.562 20.8364 11.0362 19.2083 10.6956 17.537C10.6766 17.3732 10.6766 17.2078 10.6956 17.044C10.7197 17.4412 10.7833 17.835 10.8853 18.2196C11.295 19.796 11.8363 21.3351 12.5033 22.821C13.1859 24.3973 13.9444 25.9433 14.7408 27.4603Z" fill="#828A90"/>
    <path d="M29.1011 23.6806C28.7092 24.5275 28.2921 25.3492 27.8749 26.1709C26.4465 28.9014 24.8916 31.556 23.2609 34.2106L22.6541 35.1966C22.5373 35.4204 22.3446 35.5951 22.1106 35.6896C21.8892 35.7763 21.6446 35.7833 21.4186 35.7096C21.1926 35.6358 20.9993 35.4857 20.8717 35.2851C20.0374 33.9452 19.2031 32.5799 18.3941 31.1768C18.255 30.9366 18.116 30.6964 17.9896 30.4562C19.0009 32.1754 19.9869 33.8061 20.9476 35.3231C21.077 35.4927 21.2567 35.617 21.461 35.6783C21.6654 35.7396 21.8839 35.7347 22.0853 35.6644C22.2769 35.578 22.4426 35.4429 22.5656 35.2725L23.1345 34.337C23.9056 33.1109 24.6514 31.8594 25.3846 30.6079C26.6614 28.3957 27.9128 26.133 29.1011 23.6806Z" fill="#828A90"/>
    <path d="M19.8225 13.6815C19.8352 13.6688 19.8352 13.6815 19.8352 13.6815C19.8352 13.6848 19.8338 13.688 19.8314 13.6904C19.8291 13.6928 19.8259 13.6941 19.8225 13.6941V13.6815Z" fill="#828A90"/>
    <path d="M19.8604 13.6524C19.8604 13.665 19.8478 13.665 19.8351 13.6777C19.8361 13.668 19.8406 13.659 19.8478 13.6524H19.8604Z" fill="#828A90"/>
    <path d="M19.9616 13.6056L19.9489 13.6183V13.6056H19.9616Z" fill="#828A90"/>
    <path d="M20.2144 13.4792C20.2048 13.4806 20.1959 13.485 20.1891 13.4919C20.1841 13.4966 20.1781 13.5003 20.1715 13.5024C20.165 13.5046 20.158 13.5053 20.1512 13.5045C20.1285 13.5143 20.1072 13.527 20.088 13.5424H20.0753C20.0975 13.5213 20.1231 13.5042 20.1512 13.4919C20.1764 13.4792 20.1891 13.4666 20.2144 13.4792Z" fill="#828A90"/>
    <path d="M20.3522 13.3996H20.3648C20.3522 13.4122 20.3395 13.4122 20.3269 13.4249C20.3143 13.4375 20.289 13.4375 20.2763 13.4501C20.2637 13.4628 20.2637 13.4628 20.2511 13.4628H20.2258C20.2622 13.4319 20.3056 13.4102 20.3522 13.3996Z" fill="#828A90"/>
    <path d="M20.3914 13.3907C20.3914 13.3781 20.404 13.3907 20.404 13.3907C20.404 13.3941 20.4027 13.3973 20.4003 13.3997C20.3979 13.402 20.3947 13.4034 20.3914 13.4034H20.3787L20.3914 13.3907Z" fill="#828A90"/>
    <path d="M24.841 14.9329C24.3865 14.1831 23.6846 13.6154 22.8564 13.3275C22.8437 13.3149 22.8437 13.3149 22.8311 13.3149C22.8021 13.3048 22.7726 13.2963 22.7426 13.2896C22.7278 13.2795 22.7099 13.2751 22.692 13.277C22.6452 13.2526 22.5932 13.2396 22.5403 13.239C22.5277 13.2264 22.5277 13.2264 22.5151 13.2264C22.5024 13.2264 22.4645 13.2137 22.4392 13.2137C22.437 13.2109 22.4341 13.2085 22.4308 13.2069C22.4275 13.2053 22.4239 13.2045 22.4203 13.2045C22.4166 13.2045 22.413 13.2053 22.4097 13.2069C22.4064 13.2085 22.4035 13.2109 22.4013 13.2137H22.3887C22.3818 13.2069 22.373 13.2024 22.3634 13.2011H22.3507C22.3381 13.1885 22.3381 13.1885 22.3254 13.2011H22.3128C22.3128 13.1885 22.3002 13.1885 22.2875 13.1885H22.2622C22.2297 13.1774 22.1953 13.1731 22.1611 13.1758C22.1155 13.1659 22.0688 13.1616 22.0221 13.1632H21.9336C21.9076 13.1663 21.8813 13.1619 21.8577 13.1505H21.8451C21.8198 13.1632 21.8072 13.1505 21.7945 13.1505H21.706C21.6718 13.1485 21.6375 13.1528 21.6049 13.1632H21.4899C21.4721 13.1613 21.4541 13.1658 21.4393 13.1758H21.3255C21.3061 13.186 21.2842 13.1904 21.2623 13.1885H21.237C21.2222 13.1985 21.2043 13.203 21.1865 13.2011H21.1486C21.1307 13.1992 21.1128 13.2037 21.098 13.2137H21.0601C21.0341 13.2118 21.0081 13.2161 20.9842 13.2264C20.9774 13.2256 20.9704 13.2263 20.9638 13.2285C20.9573 13.2306 20.9513 13.2343 20.9463 13.239C20.8989 13.2401 20.852 13.2487 20.8073 13.2643C20.725 13.282 20.6446 13.3074 20.5671 13.3402C20.5458 13.3431 20.5247 13.3473 20.5039 13.3528C20.4989 13.3576 20.4929 13.3612 20.4863 13.3634C20.4798 13.3656 20.4728 13.3663 20.4659 13.3654C20.4786 13.3528 20.4912 13.3402 20.5039 13.3402C20.6265 13.2907 20.7535 13.2526 20.8831 13.2264C20.8957 13.2138 20.8957 13.2011 20.9084 13.2137C21.0369 13.1814 21.168 13.1602 21.3003 13.1505C21.3255 13.1505 21.3508 13.1379 21.3761 13.1505C21.4388 13.1404 21.5023 13.1362 21.5657 13.1379C21.568 13.135 21.5708 13.1327 21.5741 13.1311C21.5774 13.1295 21.581 13.1286 21.5847 13.1286C21.5883 13.1286 21.5919 13.1295 21.5952 13.1311C21.5985 13.1327 21.6014 13.135 21.6036 13.1379C21.6832 13.1274 21.7636 13.1232 21.8438 13.1253C22.2481 13.1231 22.6484 13.2049 23.0194 13.3654H23.0321C23.0447 13.3781 23.0447 13.3781 23.0574 13.3781C23.0842 13.3807 23.1102 13.3893 23.1332 13.4034L23.1459 13.416C23.1964 13.4413 23.2343 13.4539 23.2849 13.4792C23.3305 13.4925 23.3733 13.5139 23.4113 13.5424C23.4366 13.5551 23.4745 13.5677 23.4998 13.5803C23.522 13.6015 23.5476 13.6186 23.5757 13.6309C23.6104 13.6502 23.6442 13.6713 23.6768 13.6941C23.788 13.7615 23.8936 13.8376 23.9928 13.9217C24.1651 14.0646 24.3257 14.221 24.4732 14.3894C24.519 14.4368 24.5612 14.4875 24.5996 14.5411C24.6486 14.5873 24.6873 14.6433 24.7134 14.7054C24.7389 14.7361 24.7601 14.7701 24.7766 14.8065C24.8021 14.8372 24.8233 14.8713 24.8398 14.9077L24.841 14.9329Z" fill="#828A90"/>
    <path d="M24.8663 14.9582V14.9709C24.8537 14.9582 24.8537 14.9456 24.8411 14.9329C24.8663 14.9329 24.8663 14.9456 24.8663 14.9582Z" fill="#828A90"/>
    <path d="M25.3214 16.4246L25.3088 16.412C25.2944 16.3756 25.2858 16.3372 25.2835 16.2982C25.2433 15.8805 25.1277 15.4736 24.9422 15.0973C24.9422 15.0956 24.9419 15.094 24.9412 15.0924C24.9406 15.0909 24.9397 15.0895 24.9385 15.0883C24.9373 15.0872 24.9359 15.0862 24.9344 15.0856C24.9328 15.085 24.9312 15.0846 24.9295 15.0846C24.9295 15.072 24.9169 15.072 24.9169 15.0594C24.9171 15.0463 24.9137 15.0335 24.907 15.0223C24.9003 15.0111 24.8906 15.0021 24.879 14.9962C24.879 14.9835 24.8663 14.9835 24.8663 14.9709C24.9244 15.0389 24.9713 15.1157 25.0054 15.1984C25.018 15.2237 25.0307 15.2363 25.0307 15.2616C25.0541 15.2902 25.0674 15.3258 25.0686 15.3627L25.0812 15.3754C25.1052 15.4132 25.1184 15.457 25.1192 15.5018L25.1318 15.5144C25.1414 15.5244 25.1487 15.5364 25.1531 15.5495C25.1575 15.5626 25.1588 15.5766 25.1571 15.5903C25.1667 15.6002 25.174 15.6122 25.1784 15.6253C25.1827 15.6385 25.1841 15.6524 25.1824 15.6661C25.2181 15.7687 25.2435 15.8746 25.2582 15.9822V16.0074C25.2968 16.1433 25.3181 16.2834 25.3214 16.4246Z" fill="#828A90"/>
    <path d="M26.5349 16.1465C26.5404 16.2232 26.5319 16.3003 26.5097 16.374C26.4618 15.5715 26.2142 14.7937 25.7891 14.1113C26.2085 14.7143 26.4654 15.4152 26.5349 16.1465Z" fill="#828A90"/>
    <path d="M19.8225 13.6815C19.8352 13.6688 19.8352 13.6815 19.8352 13.6815C19.8352 13.6848 19.8338 13.688 19.8314 13.6904C19.8291 13.6928 19.8259 13.6941 19.8225 13.6941V13.6815Z" fill="#828A90"/>
    <path d="M19.8604 13.6524C19.8604 13.665 19.8478 13.665 19.8351 13.6777C19.8361 13.668 19.8406 13.659 19.8478 13.6524H19.8604Z" fill="#828A90"/>
    <path d="M19.9616 13.6056L19.9489 13.6183V13.6056H19.9616Z" fill="#828A90"/>
    <path d="M20.2144 13.4792C20.2048 13.4806 20.1959 13.485 20.1891 13.4919C20.1841 13.4966 20.1781 13.5003 20.1715 13.5024C20.165 13.5046 20.158 13.5053 20.1512 13.5045C20.1285 13.5143 20.1072 13.527 20.088 13.5424H20.0753C20.0975 13.5213 20.1231 13.5042 20.1512 13.4919C20.1764 13.4792 20.1891 13.4666 20.2144 13.4792Z" fill="#828A90"/>
    <path d="M20.3522 13.3996H20.3648C20.3522 13.4122 20.3395 13.4122 20.3269 13.4249C20.3143 13.4375 20.289 13.4375 20.2763 13.4501C20.2637 13.4628 20.2637 13.4628 20.2511 13.4628H20.2258C20.2622 13.4319 20.3056 13.4102 20.3522 13.3996Z" fill="#828A90"/>
    <path d="M20.3914 13.3907C20.3914 13.3781 20.404 13.3907 20.404 13.3907C20.404 13.3941 20.4027 13.3973 20.4003 13.3997C20.3979 13.402 20.3947 13.4034 20.3914 13.4034H20.3787L20.3914 13.3907Z" fill="#828A90"/>
    <path d="M24.841 14.9329C24.3865 14.1831 23.6846 13.6154 22.8564 13.3275C22.8437 13.3149 22.8437 13.3149 22.8311 13.3149C22.8021 13.3048 22.7726 13.2963 22.7426 13.2896C22.7278 13.2795 22.7099 13.2751 22.692 13.277C22.6452 13.2526 22.5932 13.2396 22.5403 13.239C22.5277 13.2264 22.5277 13.2264 22.5151 13.2264C22.5024 13.2264 22.4645 13.2137 22.4392 13.2137C22.437 13.2109 22.4341 13.2085 22.4308 13.2069C22.4275 13.2053 22.4239 13.2045 22.4203 13.2045C22.4166 13.2045 22.413 13.2053 22.4097 13.2069C22.4064 13.2085 22.4035 13.2109 22.4013 13.2137H22.3887C22.3818 13.2069 22.373 13.2024 22.3634 13.2011H22.3507C22.3381 13.1885 22.3381 13.1885 22.3254 13.2011H22.3128C22.3128 13.1885 22.3002 13.1885 22.2875 13.1885H22.2622C22.2297 13.1774 22.1953 13.1731 22.1611 13.1758C22.1155 13.1659 22.0688 13.1616 22.0221 13.1632H21.9336C21.9076 13.1663 21.8813 13.1619 21.8577 13.1505H21.8451C21.8198 13.1632 21.8072 13.1505 21.7945 13.1505H21.706C21.6718 13.1485 21.6375 13.1528 21.6049 13.1632H21.4899C21.4721 13.1613 21.4541 13.1658 21.4393 13.1758H21.3255C21.3061 13.186 21.2842 13.1904 21.2623 13.1885H21.237C21.2222 13.1985 21.2043 13.203 21.1865 13.2011H21.1486C21.1307 13.1992 21.1128 13.2037 21.098 13.2137H21.0601C21.0341 13.2118 21.0081 13.2161 20.9842 13.2264C20.9774 13.2256 20.9704 13.2263 20.9638 13.2285C20.9573 13.2306 20.9513 13.2343 20.9463 13.239C20.8989 13.2401 20.852 13.2487 20.8073 13.2643C20.725 13.282 20.6446 13.3074 20.5671 13.3402C20.5458 13.3431 20.5247 13.3473 20.5039 13.3528C20.4989 13.3576 20.4929 13.3612 20.4863 13.3634C20.4798 13.3656 20.4728 13.3663 20.4659 13.3654C20.4786 13.3528 20.4912 13.3402 20.5039 13.3402C20.6265 13.2907 20.7535 13.2526 20.8831 13.2264C20.8957 13.2138 20.8957 13.2011 20.9084 13.2137C21.0369 13.1814 21.168 13.1602 21.3003 13.1505C21.3255 13.1505 21.3508 13.1379 21.3761 13.1505C21.4388 13.1404 21.5023 13.1362 21.5657 13.1379C21.568 13.135 21.5708 13.1327 21.5741 13.1311C21.5774 13.1295 21.581 13.1286 21.5847 13.1286C21.5883 13.1286 21.5919 13.1295 21.5952 13.1311C21.5985 13.1327 21.6014 13.135 21.6036 13.1379C21.6832 13.1274 21.7636 13.1232 21.8438 13.1253C22.2481 13.1231 22.6484 13.2049 23.0194 13.3654H23.0321C23.0447 13.3781 23.0447 13.3781 23.0574 13.3781C23.0842 13.3807 23.1102 13.3893 23.1332 13.4034L23.1459 13.416C23.1964 13.4413 23.2343 13.4539 23.2849 13.4792C23.3305 13.4925 23.3733 13.5139 23.4113 13.5424C23.4366 13.5551 23.4745 13.5677 23.4998 13.5803C23.522 13.6015 23.5476 13.6186 23.5757 13.6309C23.6104 13.6502 23.6442 13.6713 23.6768 13.6941C23.788 13.7615 23.8936 13.8376 23.9928 13.9217C24.1651 14.0646 24.3257 14.221 24.4732 14.3894C24.519 14.4368 24.5612 14.4875 24.5996 14.5411C24.6486 14.5873 24.6873 14.6433 24.7134 14.7054C24.7389 14.7361 24.7601 14.7701 24.7766 14.8065C24.8021 14.8372 24.8233 14.8713 24.8398 14.9077L24.841 14.9329Z" fill="#828A90"/>
    <path d="M24.8663 14.9582V14.9709C24.8537 14.9582 24.8537 14.9456 24.8411 14.9329C24.8663 14.9329 24.8663 14.9456 24.8663 14.9582Z" fill="#828A90"/>
    <path d="M25.3214 16.4246L25.3088 16.412C25.2944 16.3756 25.2858 16.3372 25.2835 16.2982C25.2433 15.8805 25.1277 15.4736 24.9422 15.0973C24.9422 15.0956 24.9419 15.094 24.9412 15.0924C24.9406 15.0909 24.9397 15.0895 24.9385 15.0883C24.9373 15.0872 24.9359 15.0862 24.9344 15.0856C24.9328 15.085 24.9312 15.0846 24.9295 15.0846C24.9295 15.072 24.9169 15.072 24.9169 15.0594C24.9171 15.0463 24.9137 15.0335 24.907 15.0223C24.9003 15.0111 24.8906 15.0021 24.879 14.9962C24.879 14.9835 24.8663 14.9835 24.8663 14.9709C24.9244 15.0389 24.9713 15.1157 25.0054 15.1984C25.018 15.2237 25.0307 15.2363 25.0307 15.2616C25.0541 15.2902 25.0674 15.3258 25.0686 15.3627L25.0812 15.3754C25.1052 15.4132 25.1184 15.457 25.1192 15.5018L25.1318 15.5144C25.1414 15.5244 25.1487 15.5364 25.1531 15.5495C25.1575 15.5626 25.1588 15.5766 25.1571 15.5903C25.1667 15.6002 25.174 15.6122 25.1784 15.6253C25.1827 15.6385 25.1841 15.6524 25.1824 15.6661C25.2181 15.7687 25.2435 15.8746 25.2582 15.9822V16.0074C25.2968 16.1433 25.3181 16.2834 25.3214 16.4246Z" fill="#828A90"/>
    <path d="M26.5349 16.1465C26.5404 16.2232 26.5319 16.3003 26.5097 16.374C26.4618 15.5715 26.2142 14.7937 25.7891 14.1113C26.2085 14.7143 26.4654 15.4152 26.5349 16.1465Z" fill="#828A90"/>
    <path d="M19.8225 13.6815C19.8352 13.6688 19.8352 13.6815 19.8352 13.6815C19.8352 13.6848 19.8338 13.688 19.8314 13.6904C19.8291 13.6928 19.8259 13.6941 19.8225 13.6941V13.6815Z" fill="#828A90"/>
    <path d="M19.8604 13.6524C19.8604 13.665 19.8478 13.665 19.8351 13.6777C19.8361 13.668 19.8406 13.659 19.8478 13.6524H19.8604Z" fill="#828A90"/>
    <path d="M19.9616 13.6056L19.9489 13.6183V13.6056H19.9616Z" fill="#828A90"/>
    <path d="M20.2144 13.4792C20.2048 13.4806 20.1959 13.485 20.1891 13.4919C20.1841 13.4966 20.1781 13.5003 20.1715 13.5024C20.165 13.5046 20.158 13.5053 20.1512 13.5045C20.1285 13.5143 20.1072 13.527 20.088 13.5424H20.0753C20.0975 13.5213 20.1231 13.5042 20.1512 13.4919C20.1764 13.4792 20.1891 13.4666 20.2144 13.4792Z" fill="#828A90"/>
    <path d="M20.3522 13.3996H20.3648C20.3522 13.4122 20.3395 13.4122 20.3269 13.4249C20.3143 13.4375 20.289 13.4375 20.2763 13.4501C20.2637 13.4628 20.2637 13.4628 20.2511 13.4628H20.2258C20.2622 13.4319 20.3056 13.4102 20.3522 13.3996Z" fill="#828A90"/>
    <path d="M20.3914 13.3907C20.3914 13.3781 20.404 13.3907 20.404 13.3907C20.404 13.3941 20.4027 13.3973 20.4003 13.3997C20.3979 13.402 20.3947 13.4034 20.3914 13.4034H20.3787L20.3914 13.3907Z" fill="#828A90"/>
    <path d="M24.841 14.9329C24.3865 14.1831 23.6846 13.6154 22.8564 13.3275C22.8437 13.3149 22.8437 13.3149 22.8311 13.3149C22.8021 13.3048 22.7726 13.2963 22.7426 13.2896C22.7278 13.2795 22.7099 13.2751 22.692 13.277C22.6452 13.2526 22.5932 13.2396 22.5403 13.239C22.5277 13.2264 22.5277 13.2264 22.5151 13.2264C22.5024 13.2264 22.4645 13.2137 22.4392 13.2137C22.437 13.2109 22.4341 13.2085 22.4308 13.2069C22.4275 13.2053 22.4239 13.2045 22.4203 13.2045C22.4166 13.2045 22.413 13.2053 22.4097 13.2069C22.4064 13.2085 22.4035 13.2109 22.4013 13.2137H22.3887C22.3818 13.2069 22.373 13.2024 22.3634 13.2011H22.3507C22.3381 13.1885 22.3381 13.1885 22.3254 13.2011H22.3128C22.3128 13.1885 22.3002 13.1885 22.2875 13.1885H22.2622C22.2297 13.1774 22.1953 13.1731 22.1611 13.1758C22.1155 13.1659 22.0688 13.1616 22.0221 13.1632H21.9336C21.9076 13.1663 21.8813 13.1619 21.8577 13.1505H21.8451C21.8198 13.1632 21.8072 13.1505 21.7945 13.1505H21.706C21.6718 13.1485 21.6375 13.1528 21.6049 13.1632H21.4899C21.4721 13.1613 21.4541 13.1658 21.4393 13.1758H21.3255C21.3061 13.186 21.2842 13.1904 21.2623 13.1885H21.237C21.2222 13.1985 21.2043 13.203 21.1865 13.2011H21.1486C21.1307 13.1992 21.1128 13.2037 21.098 13.2137H21.0601C21.0341 13.2118 21.0081 13.2161 20.9842 13.2264C20.9774 13.2256 20.9704 13.2263 20.9638 13.2285C20.9573 13.2306 20.9513 13.2343 20.9463 13.239C20.8989 13.2401 20.852 13.2487 20.8073 13.2643C20.725 13.282 20.6446 13.3074 20.5671 13.3402C20.5458 13.3431 20.5247 13.3473 20.5039 13.3528C20.4989 13.3576 20.4929 13.3612 20.4863 13.3634C20.4798 13.3656 20.4728 13.3663 20.4659 13.3654C20.4786 13.3528 20.4912 13.3402 20.5039 13.3402C20.6265 13.2907 20.7535 13.2526 20.8831 13.2264C20.8957 13.2138 20.8957 13.2011 20.9084 13.2137C21.0369 13.1814 21.168 13.1602 21.3003 13.1505C21.3255 13.1505 21.3508 13.1379 21.3761 13.1505C21.4388 13.1404 21.5023 13.1362 21.5657 13.1379C21.568 13.135 21.5708 13.1327 21.5741 13.1311C21.5774 13.1295 21.581 13.1286 21.5847 13.1286C21.5883 13.1286 21.5919 13.1295 21.5952 13.1311C21.5985 13.1327 21.6014 13.135 21.6036 13.1379C21.6832 13.1274 21.7636 13.1232 21.8438 13.1253C22.2481 13.1231 22.6484 13.2049 23.0194 13.3654H23.0321C23.0447 13.3781 23.0447 13.3781 23.0574 13.3781C23.0842 13.3807 23.1102 13.3893 23.1332 13.4034L23.1459 13.416C23.1964 13.4413 23.2343 13.4539 23.2849 13.4792C23.3305 13.4925 23.3733 13.5139 23.4113 13.5424C23.4366 13.5551 23.4745 13.5677 23.4998 13.5803C23.522 13.6015 23.5476 13.6186 23.5757 13.6309C23.6104 13.6502 23.6442 13.6713 23.6768 13.6941C23.788 13.7615 23.8936 13.8376 23.9928 13.9217C24.1651 14.0646 24.3257 14.221 24.4732 14.3894C24.519 14.4368 24.5612 14.4875 24.5996 14.5411C24.6486 14.5873 24.6873 14.6433 24.7134 14.7054C24.7389 14.7361 24.7601 14.7701 24.7766 14.8065C24.8021 14.8372 24.8233 14.8713 24.8398 14.9077L24.841 14.9329Z" fill="#828A90"/>
    <path d="M24.8663 14.9582V14.9709C24.8537 14.9582 24.8537 14.9456 24.8411 14.9329C24.8663 14.9329 24.8663 14.9456 24.8663 14.9582Z" fill="#828A90"/>
    <path d="M25.3214 16.4246L25.3088 16.412C25.2944 16.3756 25.2858 16.3372 25.2835 16.2982C25.2433 15.8805 25.1277 15.4736 24.9422 15.0973C24.9422 15.0956 24.9419 15.094 24.9412 15.0924C24.9406 15.0909 24.9397 15.0895 24.9385 15.0883C24.9373 15.0872 24.9359 15.0862 24.9344 15.0856C24.9328 15.085 24.9312 15.0846 24.9295 15.0846C24.9295 15.072 24.9169 15.072 24.9169 15.0594C24.9171 15.0463 24.9137 15.0335 24.907 15.0223C24.9003 15.0111 24.8906 15.0021 24.879 14.9962C24.879 14.9835 24.8663 14.9835 24.8663 14.9709C24.9244 15.0389 24.9713 15.1157 25.0054 15.1984C25.018 15.2237 25.0307 15.2363 25.0307 15.2616C25.0541 15.2902 25.0674 15.3258 25.0686 15.3627L25.0812 15.3754C25.1052 15.4132 25.1184 15.457 25.1192 15.5018L25.1318 15.5144C25.1414 15.5244 25.1487 15.5364 25.1531 15.5495C25.1575 15.5626 25.1588 15.5766 25.1571 15.5903C25.1667 15.6002 25.174 15.6122 25.1784 15.6253C25.1827 15.6385 25.1841 15.6524 25.1824 15.6661C25.2181 15.7687 25.2435 15.8746 25.2582 15.9822V16.0074C25.2968 16.1433 25.3181 16.2834 25.3214 16.4246Z" fill="#828A90"/>
    <path d="M26.5349 16.1465C26.5404 16.2232 26.5319 16.3003 26.5097 16.374C26.4618 15.5715 26.2142 14.7937 25.7891 14.1113C26.2085 14.7143 26.4654 15.4152 26.5349 16.1465Z" fill="#828A90"/>
    <path d="M22.2622 11.9117C22.04 11.8844 21.8159 11.8759 21.5923 11.8864C20.4545 11.9181 19.3643 12.3499 18.5134 13.106C17.6626 13.862 17.1056 14.8939 16.9403 16.0201C16.9187 16.0852 16.9101 16.1539 16.915 16.2223V16.2855C16.9024 16.2855 16.9024 16.2729 16.9024 16.2603V16.1465C16.9154 16.0013 16.9408 15.8575 16.9783 15.7167V15.6914C16.9855 15.6848 16.99 15.6758 16.9909 15.6661C17.0035 15.6029 17.0162 15.5397 17.0288 15.4892C17.0288 15.4858 17.0301 15.4826 17.0325 15.4802C17.0349 15.4778 17.0381 15.4765 17.0415 15.4765C17.0426 15.4332 17.0512 15.3905 17.0667 15.3501C17.0694 15.3232 17.078 15.2973 17.092 15.2743C17.0944 15.2352 17.1029 15.1968 17.1173 15.1605L17.2311 14.8571C17.2437 14.8571 17.2437 14.8571 17.2437 14.8445C17.2429 14.8376 17.2436 14.8306 17.2458 14.8241C17.248 14.8175 17.2516 14.8115 17.2564 14.8065C17.3196 14.6675 17.3828 14.5411 17.446 14.402C17.4586 14.402 17.4586 14.402 17.4586 14.3894V14.3767C17.4953 14.3354 17.5252 14.2884 17.5471 14.2377C17.5724 14.1871 17.6103 14.1366 17.6356 14.086C17.6356 14.0826 17.6369 14.0794 17.6393 14.077C17.6417 14.0747 17.6449 14.0733 17.6482 14.0733C17.6606 14.0453 17.6777 14.0197 17.6988 13.9975C17.9549 13.613 18.2657 13.2681 18.6216 12.9736C19.5811 12.1739 20.8145 11.7794 22.06 11.8738C22.1282 11.8814 22.1958 11.8941 22.2622 11.9117Z" fill="#828A90"/>
    <path d="M22.9828 12.0381C22.7444 11.9759 22.5013 11.9336 22.2559 11.9117C22.5009 11.9367 22.7438 11.9789 22.9828 12.0381Z" fill="#828A90"/>
    <path d="M18.5458 15.0429C18.5458 15.0556 18.5331 15.0682 18.5331 15.0808H18.5205C18.5205 15.072 18.5331 15.0594 18.5458 15.0429Z" fill="#828A90"/>
    <path d="M18.6722 14.8192V14.8444H18.6595C18.6668 14.8379 18.6713 14.8289 18.6722 14.8192Z" fill="#828A90"/>
    <path d="M20.1512 13.4919V13.5045C20.1285 13.5143 20.1072 13.527 20.088 13.5424H20.0753C20.0975 13.5213 20.1231 13.5042 20.1512 13.4919Z" fill="#828A90"/>
    <path d="M25.0054 15.1984C24.992 15.1605 24.9704 15.126 24.9422 15.0973C24.9422 15.0956 24.9419 15.094 24.9412 15.0924C24.9406 15.0909 24.9397 15.0895 24.9385 15.0883C24.9373 15.0872 24.9359 15.0862 24.9344 15.0856C24.9328 15.085 24.9312 15.0846 24.9295 15.0846C24.9295 15.072 24.9169 15.072 24.9169 15.0594C24.9171 15.0463 24.9137 15.0335 24.907 15.0223C24.9003 15.0111 24.8906 15.0021 24.879 14.9962C24.879 14.9835 24.8663 14.9835 24.8663 14.9709C24.9244 15.0389 24.9713 15.1157 25.0054 15.1984Z" fill="#828A90"/>
    <path d="M25.3214 16.4246L25.3087 16.412C25.3052 16.2758 25.2882 16.1403 25.2582 16.0074C25.2968 16.1433 25.318 16.2834 25.3214 16.4246Z" fill="#828A90"/>
    <path d="M22.2622 11.9117C22.04 11.8844 21.8159 11.8759 21.5923 11.8864C20.4545 11.9181 19.3643 12.3499 18.5134 13.106C17.6626 13.862 17.1056 14.8939 16.9403 16.0201C16.9187 16.0852 16.9101 16.1539 16.915 16.2223V16.2855C16.9024 16.2855 16.9024 16.2729 16.9024 16.2603V16.1465C16.9154 16.0013 16.9408 15.8575 16.9783 15.7167V15.6914C16.9855 15.6848 16.99 15.6758 16.9909 15.6661C17.0035 15.6029 17.0162 15.5397 17.0288 15.4892C17.0288 15.4858 17.0301 15.4826 17.0325 15.4802C17.0349 15.4778 17.0381 15.4765 17.0415 15.4765C17.0426 15.4332 17.0512 15.3905 17.0667 15.3501C17.0694 15.3232 17.078 15.2973 17.092 15.2743C17.0944 15.2352 17.1029 15.1968 17.1173 15.1605L17.2311 14.8571C17.2437 14.8571 17.2437 14.8571 17.2437 14.8445C17.2429 14.8376 17.2436 14.8306 17.2458 14.8241C17.248 14.8175 17.2516 14.8115 17.2564 14.8065C17.3196 14.6675 17.3828 14.5411 17.446 14.402C17.4586 14.402 17.4586 14.402 17.4586 14.3894V14.3767C17.4953 14.3354 17.5252 14.2884 17.5471 14.2377C17.5724 14.1871 17.6103 14.1366 17.6356 14.086C17.6356 14.0826 17.6369 14.0794 17.6393 14.077C17.6417 14.0747 17.6449 14.0733 17.6482 14.0733C17.6606 14.0453 17.6777 14.0197 17.6988 13.9975C17.9549 13.613 18.2657 13.2681 18.6216 12.9736C19.5811 12.1739 20.8145 11.7794 22.06 11.8738C22.1282 11.8814 22.1958 11.8941 22.2622 11.9117Z" fill="#828A90"/>
    <path d="M22.9828 12.0381C22.7444 11.9759 22.5013 11.9336 22.2559 11.9117C22.5009 11.9367 22.7438 11.9789 22.9828 12.0381Z" fill="#828A90"/>
    <path d="M18.5458 15.0429C18.5458 15.0556 18.5331 15.0682 18.5331 15.0808H18.5205C18.5205 15.072 18.5331 15.0594 18.5458 15.0429Z" fill="#828A90"/>
    <path d="M18.6722 14.8192V14.8444H18.6595C18.6668 14.8379 18.6713 14.8289 18.6722 14.8192Z" fill="#828A90"/>
    <path d="M20.1512 13.4919V13.5045C20.1285 13.5143 20.1072 13.527 20.088 13.5424H20.0753C20.0975 13.5213 20.1231 13.5042 20.1512 13.4919Z" fill="#828A90"/>
    <path d="M25.0054 15.1984C24.992 15.1605 24.9704 15.126 24.9422 15.0973C24.9422 15.0956 24.9419 15.094 24.9412 15.0924C24.9406 15.0909 24.9397 15.0895 24.9385 15.0883C24.9373 15.0872 24.9359 15.0862 24.9344 15.0856C24.9328 15.085 24.9312 15.0846 24.9295 15.0846C24.9295 15.072 24.9169 15.072 24.9169 15.0594C24.9171 15.0463 24.9137 15.0335 24.907 15.0223C24.9003 15.0111 24.8906 15.0021 24.879 14.9962C24.879 14.9835 24.8663 14.9835 24.8663 14.9709C24.9244 15.0389 24.9713 15.1157 25.0054 15.1984Z" fill="#828A90"/>
    <path d="M25.3214 16.4246L25.3087 16.412C25.3052 16.2758 25.2882 16.1403 25.2582 16.0074C25.2968 16.1433 25.318 16.2834 25.3214 16.4246Z" fill="#828A90"/>
    <path d="M26.6588 16.307C26.5557 15.3436 26.1742 14.4311 25.5609 13.681C24.9476 12.9309 24.1291 12.3757 23.2054 12.0832C22.2816 11.7908 21.2927 11.7738 20.3595 12.0342C19.4262 12.2947 18.5891 12.8214 17.9503 13.55C17.3289 14.2819 16.9367 15.1805 16.8228 16.1339V16.2097C16.6867 17.3901 16.9929 18.5791 17.6824 19.547C17.7044 19.5791 17.7299 19.6087 17.7582 19.6354C17.7835 19.6734 17.8088 19.6986 17.834 19.7366C17.844 19.7413 17.8526 19.7484 17.8592 19.7572C17.8658 19.766 17.8702 19.7763 17.872 19.7871C17.9478 19.863 18.011 19.9388 18.0869 20.0147C18.1122 20.04 18.1374 20.0779 18.1615 20.1032C18.8921 20.8611 19.8384 21.3757 20.8717 21.5771C21.7695 21.7377 22.6942 21.6455 23.5426 21.3106C24.3909 20.9757 25.1293 20.4115 25.6753 19.6809C26.4 18.7121 26.7494 17.5136 26.6588 16.307ZM25.2063 17.0794C25.1268 17.8697 24.785 18.6106 24.2355 19.1842L24.1723 19.2474C23.6931 19.723 23.0816 20.0433 22.4177 20.1664C21.8082 20.3037 21.172 20.2633 20.5848 20.0501C19.9981 19.8094 19.4791 19.4291 19.0728 18.9423C18.6666 18.4554 18.3854 17.8767 18.2537 17.2564C18.2006 16.7983 18.2393 16.3342 18.3676 15.8912C18.4959 15.4482 18.7111 15.0352 19.0008 14.6763C19.328 14.2266 19.7553 13.8591 20.2489 13.6029C20.7425 13.3466 21.289 13.2086 21.8451 13.1999C22.1401 13.2038 22.4333 13.2463 22.7173 13.3263C22.6978 13.3162 22.6775 13.3078 22.6566 13.301C22.9647 13.4123 23.2638 13.5466 23.5516 13.703C23.8339 13.8841 24.0892 14.1042 24.3101 14.3565C24.7523 14.8613 25.0509 15.4756 25.1747 16.1351C25.2295 16.4473 25.2402 16.7656 25.2063 17.0807V17.0794Z" fill="#828A90"/>
    <path d="M24.3379 19.059C24.3253 19.0729 24.3139 19.0881 24.3013 19.1007L24.3101 19.0919C24.319 19.0881 24.3291 19.0691 24.3379 19.059Z" fill="#828A90"/>
    <path d="M32.5522 18.5736C32.1117 20.1514 31.5322 21.687 30.8203 23.1623C29.4551 26.095 27.9255 28.8887 26.3327 31.6319C25.5363 32.9971 24.7147 34.3623 23.8804 35.7149C23.6502 36.1605 23.2998 36.5327 22.8691 36.7894C22.39 37.0536 21.8339 37.1427 21.2963 37.0411C20.7588 36.9396 20.2734 36.6539 19.9237 36.2332C19.7861 36.0557 19.6594 35.8699 19.5445 35.677L19.2284 35.1714C17.977 33.1488 16.7381 31.1136 15.5625 29.0025C16.0049 29.8115 16.46 30.6206 16.9277 31.4296C17.7241 32.8201 18.5458 34.198 19.3928 35.5759L19.7341 36.1068C19.9334 36.4027 20.1955 36.6509 20.5018 36.8337C20.8081 37.0166 21.151 37.1296 21.5061 37.1646C21.8611 37.1996 22.2194 37.1558 22.5556 37.0363C22.8917 36.9168 23.1973 36.7246 23.4506 36.4734C23.7459 36.1233 24.0083 35.7467 24.2343 35.3483C25.9282 32.6179 27.5589 29.8495 29.0632 26.9799C29.809 25.5515 30.5296 24.1104 31.1743 22.6061C31.8556 21.1023 32.389 19.5359 32.767 17.9289C32.8111 17.7382 32.8323 17.543 32.8303 17.3474C32.7584 17.7606 32.6655 18.1698 32.5522 18.5736Z" fill="#828A90"/>
    <path d="M32.5774 13.4919C31.9434 10.9789 30.4571 8.76372 28.3719 7.22443C26.2868 5.68515 23.7322 4.91711 21.1439 5.05137C18.5556 5.18563 16.0942 6.21387 14.1795 7.96064C12.2648 9.70741 11.0156 12.0644 10.6451 14.6296C10.2102 17.4106 11.425 20.3181 12.5033 22.8197C13.1859 24.3999 13.9444 25.9421 14.7408 27.459C15.0063 27.9647 15.2717 28.4703 15.5625 29.0012C16.7381 31.1123 17.9769 33.1475 19.2284 35.1701L19.5444 35.6757C19.6594 35.8687 19.7861 36.0544 19.9237 36.232C20.2733 36.6527 20.7587 36.9384 21.2963 37.0399C21.8339 37.1414 22.39 37.0524 22.869 36.7882C23.2998 36.5314 23.6501 36.1592 23.8803 35.7137C24.7146 34.3611 25.5363 32.9958 26.3327 31.6306C27.9255 28.8875 29.4551 26.0938 30.8203 23.161C31.5322 21.6857 32.1117 20.1501 32.5521 18.5723C32.6669 18.1646 32.7597 17.7511 32.8302 17.3335C32.8844 16.9015 32.914 16.4668 32.9187 16.0315C32.9063 15.1744 32.7917 14.3218 32.5774 13.4919ZM31.3765 17.6508C31.3512 17.7393 31.3386 17.8278 31.3133 17.9163C31.2501 18.1817 31.1742 18.4598 31.0984 18.7253C30.8187 19.6441 30.4895 20.5472 30.1124 21.4305C29.809 22.1889 29.4677 22.9348 29.1011 23.6806C28.7092 24.5276 28.2921 25.3492 27.8749 26.1709C26.4465 28.9014 24.8916 31.556 23.2609 34.2106L22.6541 35.1966C22.5373 35.4204 22.3446 35.5951 22.1106 35.6897C21.8892 35.7763 21.6446 35.7834 21.4186 35.7096C21.1926 35.6358 20.9993 35.4857 20.8717 35.2851C20.0374 33.9452 19.2031 32.5799 18.3941 31.1768C18.255 30.9366 18.116 30.6964 17.9896 30.4562C17.6609 29.9127 17.3575 29.3691 17.0415 28.8129C16.7634 28.3072 16.4726 27.789 16.1945 27.2707C16.1187 27.1316 16.0555 27.0052 15.9796 26.8662C15.5878 26.1456 15.1959 25.3871 14.8166 24.616C14.4374 23.8449 14.0835 23.0738 13.7295 22.2774C13.1074 20.906 12.6 19.4853 12.2126 18.03C12.1494 17.6887 12.0609 17.3348 12.0103 16.9934C11.9783 16.6616 11.9656 16.3281 11.9724 15.9948C11.9878 15.3081 12.0811 14.6253 12.2505 13.9596C12.7952 11.7058 14.125 9.71973 16.0014 8.35759C17.8778 6.99545 20.1781 6.34633 22.4898 6.52661C22.7311 6.53937 22.9716 6.56469 23.2103 6.60246C23.3735 6.61244 23.5347 6.64215 23.6907 6.69094C23.855 6.71623 24.0067 6.75415 24.1711 6.79207C24.3362 6.81907 24.4974 6.86576 24.6514 6.93112C24.9801 7.03225 25.2961 7.14602 25.6122 7.27243C25.7891 7.34828 25.9661 7.42413 26.1431 7.51261C26.3294 7.59963 26.5108 7.69669 26.6866 7.80336C27.0306 8.00325 27.3601 8.22713 27.6727 8.47334C27.9524 8.6791 28.2184 8.9029 28.469 9.14332C28.6081 9.26973 28.7345 9.39614 28.8483 9.52255C28.9775 9.65524 29.0999 9.79448 29.2149 9.93971C29.3509 10.0718 29.4698 10.2204 29.5688 10.3821C30.2476 11.2824 30.7691 12.2911 31.111 13.3654C31.5394 14.7524 31.6304 16.2216 31.3765 17.6508Z" fill="#828A90"/>
    <path d="M24.9422 15.0973C24.9704 15.126 24.9919 15.1605 25.0054 15.1984C25.018 15.2237 25.0306 15.2363 25.018 15.249L25.0306 15.2616C25.0541 15.2902 25.0674 15.3258 25.0686 15.3627C25.0465 15.3274 25.0295 15.2891 25.018 15.249L24.9422 15.0973L24.9295 15.0846C24.9295 15.072 24.9169 15.072 24.9169 15.0594C24.9422 15.072 24.9422 15.0846 24.9422 15.0973ZM25.3087 16.412C25.2943 16.3756 25.2858 16.3372 25.2835 16.2982C25.2556 16.032 25.2005 15.7694 25.1191 15.5144L25.0812 15.4007C25.0743 15.3938 25.0699 15.385 25.0686 15.3754H25.0812C25.0812 15.388 25.0938 15.388 25.0812 15.4007C25.1028 15.4303 25.1159 15.4653 25.1191 15.5018V15.5144H25.1318C25.1414 15.5244 25.1487 15.5364 25.1531 15.5495C25.1574 15.5626 25.1588 15.5766 25.1571 15.5903C25.1667 15.6002 25.174 15.6122 25.1783 15.6253C25.1827 15.6385 25.1841 15.6524 25.1823 15.6661C25.2181 15.7687 25.2435 15.8745 25.2582 15.9822V16.0074C25.2968 16.1433 25.318 16.2834 25.3214 16.4246L25.3087 16.412Z" fill="#828A90"/>
</svg>
