<svg width="40" height="23" viewBox="0 0 40 23" fill="none" xmlns="http://www.w3.org/2000/svg">
    <path d="M13.414 13.7875H15.6699V16.9731H13.414V21.2797H9.46283V16.9731H1.30072L1.12299 14.4848L9.42181 1.37344H13.414V13.7875ZM5.06049 13.7875H9.46283V6.76016L9.20306 7.21133L5.06049 13.7875Z" fill="#DAF0ED"/>
    <path d="M31.4472 21.2797H17.8027V18.5727L24.2421 11.7094C25.1262 10.7432 25.7779 9.90014 26.1972 9.18008C26.6256 8.46003 26.8398 7.77644 26.8398 7.1293C26.8398 6.24519 26.6165 5.55248 26.1699 5.05118C25.7232 4.54076 25.0852 4.28555 24.2558 4.28555C23.3626 4.28555 22.6562 4.59545 22.1367 5.21524C21.6262 5.82592 21.371 6.63256 21.371 7.63516H17.4062C17.4062 6.42292 17.6933 5.3155 18.2675 4.3129C18.8509 3.31029 19.6712 2.52644 20.7285 1.96133C21.7857 1.38712 22.9843 1.10001 24.3242 1.10001C26.3749 1.10001 27.9654 1.59219 29.0956 2.57657C30.235 3.56094 30.8046 4.95092 30.8046 6.74649C30.8046 7.73087 30.5494 8.73347 30.039 9.7543C29.5286 10.7751 28.6536 11.9646 27.414 13.3227L22.8886 18.0941H31.4472V21.2797Z" fill="#DAF0ED"/>
    <path d="M34.2499 19.3383C34.2499 18.7094 34.4596 18.199 34.8788 17.807C35.3072 17.4151 35.8404 17.2191 36.4785 17.2191C37.1256 17.2191 37.6588 17.4151 38.0781 17.807C38.5065 18.199 38.7206 18.7094 38.7206 19.3383C38.7206 19.9581 38.511 20.4639 38.0917 20.8559C37.6725 21.2387 37.1347 21.4301 36.4785 21.4301C35.8313 21.4301 35.2981 21.2387 34.8788 20.8559C34.4596 20.4639 34.2499 19.9581 34.2499 19.3383Z" fill="#DAF0ED"/>
    <path fill-rule="evenodd" clip-rule="evenodd" d="M16.7699 12.6875V18.0658L23.4353 10.9617C24.2903 10.0269 24.8832 9.25066 25.2466 8.62657L25.2518 8.61763C25.6082 8.01862 25.7398 7.52822 25.7398 7.1293C25.7398 6.42781 25.5651 6.02594 25.3485 5.7829L25.342 5.77556C25.1501 5.5562 24.8449 5.38555 24.2558 5.38555C23.6498 5.38555 23.2671 5.57925 22.9801 5.92139C22.6747 6.28716 22.471 6.82221 22.471 7.63516V8.73516H16.3062V7.63516C16.3062 6.24093 16.6387 4.94355 17.313 3.7662L17.3167 3.75969C18.0056 2.57563 18.9773 1.65074 20.2067 0.992942C21.442 0.322797 22.8235 0 24.3242 0C26.5415 0 28.4228 0.532705 29.8165 1.74564C31.2433 2.97934 31.9046 4.69969 31.9046 6.74648C31.9046 7.92692 31.5975 9.09701 31.0229 10.2462C30.4481 11.3958 29.4982 12.6709 28.2265 14.0642L28.2194 14.072L25.4479 16.9941H32.5472V22.3797H16.7027V18.1374L16.7631 18.073H14.514V22.3797H8.36283V18.073H0.276488L0 14.2022L8.81623 0.273438H14.514V12.6875H16.7699ZM9.46283 16.973V21.2797H13.414V16.973H15.6699V13.7875H13.414V1.37344H9.42181L1.12299 14.4848L1.30072 16.973H9.46283ZM22.8886 18.0941L27.414 13.3227C28.6536 11.9646 29.5286 10.7751 30.039 9.7543C30.5494 8.73346 30.8046 7.73086 30.8046 6.74648C30.8046 4.95091 30.235 3.56094 29.0956 2.57656C27.9654 1.59219 26.3749 1.1 24.3242 1.1C22.9843 1.1 21.7857 1.38711 20.7285 1.96133C19.6712 2.52643 18.8509 3.31029 18.2675 4.31289C17.8718 5.00386 17.6124 5.74462 17.4894 6.53516C17.4339 6.8917 17.4062 7.25836 17.4062 7.63516H21.371C21.371 6.63255 21.6262 5.82591 22.1367 5.21523C22.6562 4.59544 23.3626 4.28555 24.2558 4.28555C25.0852 4.28555 25.7232 4.54075 26.1699 5.05117C26.6165 5.55247 26.8398 6.24518 26.8398 7.1293C26.8398 7.77643 26.6256 8.46003 26.1972 9.18008C25.7779 9.90013 25.1262 10.7432 24.2421 11.7094L17.8027 18.5727V21.2797H31.4472V18.0941H22.8886ZM5.06048 13.7875H9.46283V6.76016L9.20306 7.21133L5.06048 13.7875ZM8.36283 10.609L7.05348 12.6875H8.36283V10.609ZM34.1363 16.9954C34.7882 16.399 35.595 16.1191 36.4785 16.1191C37.3641 16.1191 38.176 16.3951 38.8247 16.9993C39.4984 17.6177 39.8206 18.4313 39.8206 19.3383C39.8206 20.2355 39.5038 21.0416 38.8429 21.6594L38.8335 21.6682C38.1801 22.2648 37.3635 22.5301 36.4785 22.5301C35.598 22.5301 34.7876 22.2621 34.1371 21.6682L34.1276 21.6595C33.4667 21.0417 33.1499 20.2355 33.1499 19.3383C33.1499 18.4372 33.4632 17.6246 34.1277 17.0035L34.1363 16.9954ZM38.0781 17.807C37.6588 17.4151 37.1256 17.2191 36.4785 17.2191C35.8404 17.2191 35.3072 17.4151 34.8788 17.807C34.4596 18.199 34.2499 18.7094 34.2499 19.3383C34.2499 19.9581 34.4596 20.4639 34.8788 20.8559C35.2981 21.2387 35.8313 21.4301 36.4785 21.4301C37.1347 21.4301 37.6725 21.2387 38.0917 20.8559C38.511 20.4639 38.7206 19.9581 38.7206 19.3383C38.7206 18.7094 38.5065 18.199 38.0781 17.807Z" fill="#828A90"/>
</svg>
