<svg width="41" height="41" viewBox="0 0 41 41" fill="none" xmlns="http://www.w3.org/2000/svg">
    <path d="M32.206 38.2784L10.9925 38.1699C10.109 38.1699 9.33758 38.194 8.56498 38.2181L7.75742 38.2326C7.24034 38.2434 6.72567 38.2543 6.21823 38.2543C5.61557 38.2543 5.01291 38.2422 4.42954 38.2061C4.27763 38.2069 4.12724 38.1757 3.98813 38.1147C3.84901 38.0536 3.72427 37.964 3.62198 37.8517C3.38483 37.3808 3.32206 36.841 3.4448 36.3282L3.45685 36.2077C3.49301 35.9666 3.50507 36.3583 3.50507 36.186C3.51832 35.1265 3.51832 34.0634 3.51832 33.0027L3.50507 26.306C3.50507 25.9938 3.84255 25.9601 3.98719 25.9601L7.96473 25.9709H11.6313C20.2782 25.9709 28.7034 25.983 36.7235 26.1168C37.0851 26.1288 37.2732 26.1445 37.3913 26.3639C37.6111 27.1308 37.6637 27.936 37.5456 28.7251C37.5299 28.9782 37.5215 29.1301 37.5215 29.2554C37.5094 29.6592 37.4974 30.0678 37.4733 30.4764C37.4479 31.0091 37.4263 31.4937 37.4263 31.9782L37.4407 35.0903C37.4516 36.2306 37.4612 36.638 37.4612 37.8119C37.4612 37.938 37.4119 38.059 37.3238 38.1491C37.2358 38.2392 37.1159 38.2912 36.9899 38.2941L32.206 38.2784Z" fill="#828A90"/>
    <path d="M32.206 14.1432L10.9925 14.0347C10.109 14.0347 9.3376 14.0588 8.56499 14.0829L7.74538 14.0986C7.23192 14.1094 6.72207 14.119 6.21825 14.119C5.61559 14.119 5.01293 14.107 4.42956 14.0708C4.27746 14.0721 4.12683 14.041 3.98762 13.9797C3.84841 13.9184 3.72379 13.8283 3.622 13.7153C3.37948 13.1447 3.3205 12.5129 3.45325 11.9073C3.48641 11.6822 3.50372 11.455 3.50508 11.2275C3.50508 11.2275 3.51834 10.2367 3.51834 9.41229L3.50749 3.19166C3.51084 3.06485 3.56271 2.94416 3.65241 2.85446C3.74211 2.76476 3.86281 2.71288 3.98962 2.70953L7.96716 2.72159H11.6313C20.2565 2.72159 28.6672 2.73243 36.7236 2.86622C36.8597 2.86074 36.9945 2.89381 37.1127 2.96162C37.2308 3.02943 37.3274 3.12923 37.3913 3.24952C37.6089 3.8527 37.6621 4.50288 37.5456 5.13342C37.5299 5.38533 37.5215 5.5372 37.5215 5.66256C37.5094 6.06754 37.4974 6.47614 37.4733 6.88475C37.448 7.4187 37.4263 7.90324 37.4263 8.38657L37.4371 9.68469C37.4492 11.0105 37.4612 12.3484 37.4612 13.6731C37.4613 13.7991 37.4119 13.9201 37.3239 14.0102C37.2358 14.1003 37.1159 14.1524 36.9899 14.1552L32.206 14.1432Z" fill="#828A90"/>
    <path d="M20.6567 29.1337C20.5183 30.6346 20.897 32.1377 21.7301 33.3938C22.5631 34.6499 23.8004 35.5837 25.2369 36.0401C25.0055 36.0582 24.7777 36.0715 24.545 36.0811C22.402 36.1607 19.6165 36.2776 17.7953 34.9963C17.4427 34.783 17.1433 34.4922 16.9197 34.146C16.6961 33.7998 16.5542 33.4073 16.5048 32.9982C16.4553 32.589 16.4995 32.174 16.6342 31.7845C16.7688 31.395 16.9903 31.0413 17.2818 30.75C18.2471 29.927 19.4103 29.3699 20.6567 29.1337Z" fill="white"/>
    <path d="M36.65 32.8653C36.6633 35.8666 36.6898 34.4551 36.7525 37.4455C27.8452 37.4455 16.6116 37.3431 7.74414 37.3382C6.71239 37.3382 4.30658 37.3382 4.30658 37.3382C4.30658 37.3382 4.36443 37.6564 4.36443 35.6339V35.0313C4.42342 35.0335 4.48148 35.0161 4.52956 34.9819C9.00731 32.0662 13.8744 29.3928 19.2416 28.8251C17.3794 29.4989 15.5401 30.7271 15.7462 32.9111C16.0283 35.8846 19.4743 36.5946 21.8813 36.7368C26.6929 37.0405 32.9123 36.28 36.65 32.8653Z" fill="white"/>
    <path d="M36.6584 26.799C36.6584 32.3928 36.6271 26.5881 36.6452 32.1867C34.5817 33.7133 32.2308 34.8068 29.7339 35.4013C28.5843 35.7797 27.3599 35.8732 26.1662 35.6737C25.0231 35.4073 23.9653 34.8577 23.0902 34.0755C22.9697 33.9549 22.8491 33.8344 22.7419 33.7139C22.1065 32.9541 21.6648 32.0517 21.4546 31.0839C21.3454 30.5947 21.274 30.0979 21.2412 29.5977C21.2099 29.1469 21.3304 28.7757 20.9062 28.4635C20.208 28.1929 19.4459 28.1321 18.7137 28.2888C17.5641 28.4127 16.4273 28.6353 15.3159 28.9541C11.3996 30.1396 7.70207 31.954 4.36804 34.3262V26.8074C13.2572 26.8074 24.4281 26.8074 33.2607 26.799H36.6584Z" fill="#DAF0ED"/>
    <path d="M36.521 13.2585C29.9521 13.2006 22.6201 13.1717 16.0403 13.1452L4.52113 13.0958L4.35238 13.1066H4.33912L4.32104 12.9367L4.3331 12.8716L4.34515 9.47378C4.34515 7.08967 4.356 6.04225 4.38613 3.67139V3.60269H4.45966C11.6409 3.67019 18.9415 3.70032 26.0059 3.72322L36.6428 3.76782L36.6247 8.17204C36.6247 10.2934 36.6151 11.0793 36.5873 13.1922V13.2585H36.521Z" fill="#DAF0ED"/>
    <path d="M37.2973 20.0179L37.2852 19.8853C37.2732 19.0054 37.2491 18.1135 37.2491 17.2336C37.2464 17.1937 37.2354 17.1549 37.2167 17.1196C37.198 17.0843 37.1721 17.0533 37.1406 17.0287C37.1187 17.0068 37.0922 16.9901 37.063 16.9796C37.0338 16.9692 37.0027 16.9654 36.9719 16.9684L30.9935 16.9323C23.5896 16.8937 16.181 16.8575 8.76748 16.8238H6.81487C5.92293 16.8238 5.031 16.8238 4.13907 16.7997C4.04827 16.8022 3.96207 16.8402 3.89897 16.9056C3.83588 16.9709 3.80091 17.0584 3.80158 17.1492L3.68105 22.7178C3.68006 22.764 3.68843 22.8098 3.70565 22.8527C3.72286 22.8956 3.74857 22.9345 3.78123 22.9671C3.81389 22.9998 3.85281 23.0255 3.89567 23.0427C3.93852 23.0599 3.98442 23.0683 4.03059 23.0673C7.45368 23.1637 11.1661 23.212 15.7101 23.212C18.0122 23.212 20.3144 23.1999 22.6286 23.1879H23.2554C25.7624 23.1637 28.2815 23.1517 30.7886 23.1517L36.9719 23.1758C37.0204 23.1758 37.0684 23.1661 37.1131 23.1472C37.1577 23.1282 37.1982 23.1005 37.2319 23.0657C37.2656 23.0308 37.292 22.9895 37.3095 22.9442C37.3269 22.899 37.3351 22.8506 37.3335 22.8022C37.3335 21.8741 37.3093 20.946 37.2973 20.0179ZM36.4295 22.2598L4.53682 22.1778L4.66941 17.694L36.4897 17.7784L36.4295 22.2598Z" fill="#828A90"/>
    <path d="M4.53796 22.2357L4.60908 17.6892L36.4897 17.7145V22.32L4.53796 22.2357Z" fill="#DAF0ED"/>
    <path d="M4.53796 22.2357L4.60908 17.6892L36.4897 17.7145V22.32L4.53796 22.2357Z" fill="#DAF0ED"/>
    <path d="M36.4897 17.776L36.4294 22.2598L4.5368 22.1754L4.66939 17.6916L36.4897 17.776Z" fill="#DAF0ED"/>
</svg>
