<svg width="54" height="54" viewBox="0 0 54 54" fill="none" xmlns="http://www.w3.org/2000/svg">
    <path d="M44.8892 15.648L45.4584 15.4584L44.8892 15.648C45.3109 16.9142 45.492 18.279 45.4228 19.7073C45.2984 22.2735 44.3936 25.0575 42.6074 28.2329C39.5105 33.7384 34.5336 38.7302 27.3433 43.4841C27.3433 43.4841 27.3433 43.4841 27.3433 43.4841L26.9707 43.7304L26.5981 43.4841C20.7542 39.6203 16.3853 35.5933 13.2174 31.1774C11.7545 29.1382 9.85328 26.0129 8.99874 22.6142L8.42112 22.7595L8.99874 22.6142C8.56884 20.9045 8.44114 19.2768 8.60844 17.7737C8.79926 16.0596 9.37533 14.4756 10.3211 13.0598L10.3211 13.0598C11.2437 11.6785 12.4925 10.5326 13.9295 9.74616C15.3673 8.95924 16.9709 8.54489 18.5638 8.54489C20.479 8.54489 22.3429 9.11417 23.9556 10.1941C24.9268 10.8446 25.7816 11.6614 26.4869 12.6073L26.9683 13.253L27.4492 12.6069C28.1546 11.6591 29.01 10.8408 29.9823 10.1891C31.5958 9.10753 33.4609 8.53744 35.3776 8.53744C36.0352 8.53744 36.6928 8.60478 37.3317 8.73739L37.4536 8.15004L37.3317 8.73739C39.0249 9.08877 40.6284 9.9171 41.9657 11.1387C43.3019 12.3594 44.3133 13.9189 44.8892 15.648Z" fill="#DAF0ED" stroke="#828A90" stroke-width="1.2"/>
</svg>
