<svg width="46" height="46" viewBox="0 0 46 46" fill="none" xmlns="http://www.w3.org/2000/svg">
    <path d="M4.34631 14.0085C8.2139 14.1032 12.4196 14.1573 17.6124 14.1573C20.4387 14.1573 23.2786 14.1438 26.1049 14.1302C28.9312 14.1167 31.771 14.1032 34.5974 14.1032L41.6429 14.1167C41.7863 14.1167 41.9239 14.0597 42.0254 13.9583C42.1268 13.8568 42.1838 13.7192 42.1838 13.5758C42.1838 12.521 42.1567 11.4662 42.1297 10.4114C42.1027 9.35659 42.0756 8.31532 42.0756 7.27404C42.0784 7.20047 42.0543 7.1284 42.008 7.0712L41.8728 7.09824L41.9404 6.94949L41.8322 6.8954L41.6834 6.82778L36.2066 6.80073C27.3716 6.74664 18.541 6.70157 9.71496 6.6655H7.5107C6.49647 6.6655 5.49577 6.6655 4.46802 6.63846C4.3316 6.64525 4.2028 6.70339 4.10748 6.80122C4.01217 6.89905 3.95739 7.02931 3.95414 7.16586L3.81891 13.4676C3.81886 13.6087 3.87399 13.7443 3.97253 13.8454C4.07107 13.9464 4.2052 14.005 4.34631 14.0085Z" fill="#828A90"/>
    <path d="M42.0756 19.864C42.0761 19.7949 42.0521 19.7279 42.008 19.6747L41.8728 19.7017L41.9404 19.553L41.8322 19.4854L41.6834 19.4177L35.9361 19.3907C27.2003 19.3501 18.4599 19.3096 9.71496 19.269H7.5107C6.49647 19.269 5.49577 19.2555 4.46802 19.2284C4.32929 19.2354 4.19856 19.2954 4.10289 19.3961C4.00723 19.4968 3.95397 19.6305 3.95414 19.7693L3.81891 26.0711C3.81891 26.211 3.87447 26.3451 3.97338 26.444C4.07229 26.5429 4.20643 26.5985 4.34631 26.5985C8.20038 26.7067 12.4196 26.7608 17.5854 26.7608C20.4387 26.7608 23.2831 26.7517 26.1184 26.7337C28.9718 26.7202 31.8161 26.7112 34.6515 26.7067L41.6429 26.7202C41.7876 26.7167 41.9251 26.6567 42.0262 26.5531C42.1273 26.4495 42.1838 26.3105 42.1838 26.1657C42.1838 25.1245 42.1567 24.0697 42.1297 23.0149C42.1027 21.9601 42.0756 20.9188 42.0756 19.864Z" fill="#828A90"/>
    <path d="M34.619 32.4675C34.6156 32.3991 34.5921 32.3332 34.5514 32.2782L34.4162 32.3052L34.4838 32.1565L34.3621 32.0888L34.2133 32.0212L28.8852 31.9807C22.1237 31.9401 15.3667 31.904 8.61418 31.8725H6.73989C5.9826 31.8725 5.21178 31.859 4.44097 31.8319C4.30323 31.8347 4.17213 31.8917 4.07598 31.9903C3.97983 32.089 3.92635 32.2215 3.92709 32.3593L3.81891 38.661C3.81886 38.8022 3.87399 38.9378 3.97253 39.0388C4.07107 39.1399 4.2052 39.1984 4.34631 39.202C7.41604 39.3102 10.7427 39.3642 14.8537 39.3642C17.1662 39.3642 19.4921 39.3507 21.8046 39.3372C24.117 39.3237 26.443 39.2966 28.7554 39.2966L34.1782 39.3102C34.2511 39.3109 34.3234 39.297 34.3908 39.2691C34.4582 39.2412 34.5193 39.2 34.5703 39.1479C34.6188 39.0976 34.6568 39.0383 34.6824 38.9734C34.7079 38.9084 34.7204 38.839 34.7191 38.7692C34.7191 37.7144 34.692 36.6732 34.6785 35.6184C34.665 34.5636 34.619 33.5088 34.619 32.4675Z" fill="#828A90"/>
    <path d="M36.5758 7.57967H41.3237C41.3156 9.44044 41.2453 11.3026 41.2345 13.1647L9.60137 13.093C7.99212 13.093 6.38018 13.1025 4.77094 13.07C4.80159 11.2363 4.83404 9.40393 4.8683 7.57291C15.4284 7.82038 26.0156 7.58778 36.5758 7.57967Z" fill="#DAF0ED"/>
    <path d="M9.60137 25.6938C7.99212 25.6938 6.38018 25.7019 4.77094 25.6708C4.80609 23.8371 4.84171 22.0029 4.87777 20.1683C15.4352 20.4212 26.0224 20.1886 36.5826 20.1804H41.3305C41.3224 22.0412 41.2521 23.9033 41.2412 25.7655L9.60137 25.6938Z" fill="#DAF0ED"/>
    <path d="M8.49519 38.2919C7.25107 38.2919 6.0056 38.3 4.76147 38.2702C4.78762 36.4365 4.81376 34.6023 4.83991 32.7677C13.2729 33.0382 21.7437 32.7853 30.1835 32.7772H33.8644C33.8563 34.6379 33.786 36.5001 33.7752 38.3622L8.49519 38.2919Z" fill="#DAF0ED"/>
</svg>
