<svg width="39" height="37" viewBox="0 0 39 37" fill="none" xmlns="http://www.w3.org/2000/svg">
    <path d="M1.16669 2.00001C1.16669 1.53977 1.53978 1.16667 2.00002 1.16667H7.00002C7.46026 1.16667 7.83335 1.53977 7.83335 2.00001V7.00001C7.83335 7.46024 7.46026 7.83334 7.00002 7.83334H2.00002C1.53978 7.83334 1.16669 7.46024 1.16669 7.00001V2.00001Z" fill="#DAF0ED"/>
    <path fill-rule="evenodd" clip-rule="evenodd" d="M2 0H7C8.10457 0 9 0.895431 9 2V7C9 8.10457 8.10457 9 7 9H2C0.895431 9 0 8.10457 0 7V2C0 0.895431 0.895431 0 2 0ZM2 1.16667C1.53976 1.16667 1.16667 1.53976 1.16667 2V7C1.16667 7.46024 1.53976 7.83333 2 7.83333H7C7.46024 7.83333 7.83333 7.46024 7.83333 7V2C7.83333 1.53976 7.46024 1.16667 7 1.16667H2Z" fill="#828A90"/>
    <path d="M12.8334 2.00001C12.8334 1.53977 13.2065 1.16667 13.6667 1.16667H37C37.4603 1.16667 37.8334 1.53977 37.8334 2.00001V7.00001C37.8334 7.46024 37.4603 7.83334 37 7.83334H13.6667C13.2065 7.83334 12.8334 7.46024 12.8334 7.00001V2.00001Z" fill="#DAF0ED"/>
    <path fill-rule="evenodd" clip-rule="evenodd" d="M13.6667 0H37C38.1046 0 39 0.895429 39 2V7C39 8.10457 38.1046 9 37 9H13.6667C12.5621 9 11.6667 8.10457 11.6667 7V2C11.6667 0.895431 12.5621 0 13.6667 0ZM13.6667 1.16667C13.2064 1.16667 12.8334 1.53976 12.8334 2V7C12.8334 7.46024 13.2065 7.83333 13.6667 7.83333H37C37.4603 7.83333 37.8334 7.46024 37.8334 7V2C37.8334 1.53976 37.4603 1.16667 37 1.16667H13.6667Z" fill="#828A90"/>
    <path d="M1.16669 15.3334C1.16669 14.8731 1.53978 14.5 2.00002 14.5H7.00002C7.46026 14.5 7.83335 14.8731 7.83335 15.3334V20.3334C7.83335 20.7936 7.46026 21.1667 7.00002 21.1667H2.00002C1.53978 21.1667 1.16669 20.7936 1.16669 20.3334V15.3334Z" fill="white"/>
    <path fill-rule="evenodd" clip-rule="evenodd" d="M2 13.3333H7C8.10457 13.3333 9 14.2287 9 15.3333V20.3333C9 21.4379 8.10457 22.3333 7 22.3333H2C0.895431 22.3333 0 21.4379 0 20.3333V15.3333C0 14.2287 0.895431 13.3333 2 13.3333ZM2 14.5C1.53976 14.5 1.16667 14.8731 1.16667 15.3333V20.3333C1.16667 20.7935 1.53976 21.1666 2 21.1666H7C7.46024 21.1666 7.83333 20.7935 7.83333 20.3333V15.3333C7.83333 14.8731 7.46024 14.5 7 14.5H2Z" fill="#828A90"/>
    <path d="M12.8334 15.3334C12.8334 14.8731 13.2065 14.5 13.6667 14.5H37C37.4603 14.5 37.8334 14.8731 37.8334 15.3334V20.3334C37.8334 20.7936 37.4603 21.1667 37 21.1667H13.6667C13.2065 21.1667 12.8334 20.7936 12.8334 20.3334V15.3334Z" fill="#DAF0ED"/>
    <path fill-rule="evenodd" clip-rule="evenodd" d="M13.6667 13.3333H37C38.1046 13.3333 39 14.2287 39 15.3333V20.3333C39 21.4379 38.1046 22.3333 37 22.3333H13.6667C12.5621 22.3333 11.6667 21.4379 11.6667 20.3333V15.3333C11.6667 14.2287 12.5621 13.3333 13.6667 13.3333ZM13.6667 14.5C13.2064 14.5 12.8334 14.8731 12.8334 15.3333V20.3333C12.8334 20.7935 13.2065 21.1666 13.6667 21.1666H37C37.4603 21.1666 37.8334 20.7935 37.8334 20.3333V15.3333C37.8334 14.8731 37.4603 14.5 37 14.5H13.6667Z" fill="#828A90"/>
    <path d="M1.16669 29.5C1.16669 29.0398 1.53978 28.6667 2.00002 28.6667H7.00002C7.46026 28.6667 7.83335 29.0398 7.83335 29.5V34.5C7.83335 34.9603 7.46026 35.3334 7.00002 35.3334H2.00002C1.53978 35.3334 1.16669 34.9603 1.16669 34.5V29.5Z" fill="white"/>
    <path fill-rule="evenodd" clip-rule="evenodd" d="M2 27.5H7C8.10457 27.5 9 28.3955 9 29.5V34.5C9 35.6046 8.10457 36.5 7 36.5H2C0.895431 36.5 0 35.6046 0 34.5V29.5C0 28.3955 0.895431 27.5 2 27.5ZM2 28.6667C1.53976 28.6667 1.16667 29.0398 1.16667 29.5V34.5C1.16667 34.9603 1.53976 35.3334 2 35.3334H7C7.46024 35.3334 7.83333 34.9603 7.83333 34.5V29.5C7.83333 29.0398 7.46024 28.6667 7 28.6667H2Z" fill="#828A90"/>
    <path d="M12.8334 29.5C12.8334 29.0398 13.2065 28.6667 13.6667 28.6667H37C37.4603 28.6667 37.8334 29.0398 37.8334 29.5V34.5C37.8334 34.9603 37.4603 35.3334 37 35.3334H13.6667C13.2065 35.3334 12.8334 34.9603 12.8334 34.5V29.5Z" fill="#DAF0ED"/>
    <path fill-rule="evenodd" clip-rule="evenodd" d="M13.6667 27.5H37C38.1046 27.5 39 28.3955 39 29.5V34.5C39 35.6046 38.1046 36.5 37 36.5H13.6667C12.5621 36.5 11.6667 35.6046 11.6667 34.5V29.5C11.6667 28.3955 12.5621 27.5 13.6667 27.5ZM13.6667 28.6667C13.2064 28.6667 12.8334 29.0398 12.8334 29.5V34.5C12.8334 34.9603 13.2065 35.3334 13.6667 35.3334H37C37.4603 35.3334 37.8334 34.9603 37.8334 34.5V29.5C37.8334 29.0398 37.4603 28.6667 37 28.6667H13.6667Z" fill="#828A90"/>
</svg>
