<svg width="45" height="45" viewBox="0 0 45 45" fill="none" xmlns="http://www.w3.org/2000/svg">
    <path d="M41.0631 16.0072C40.9742 15.8553 40.8464 15.7299 40.693 15.6439C40.5395 15.5578 40.3658 15.5143 40.1899 15.5177C31.4191 15.3722 22.2646 15.3589 12.8719 15.3589H8.83705L4.51115 15.3457C4.32562 15.3471 4.14808 15.4214 4.01689 15.5526C3.8857 15.6838 3.81139 15.8613 3.81 16.0468C3.82323 18.309 3.82323 20.5712 3.82323 22.8201V26.2994C3.81868 26.5251 3.80101 26.7504 3.77032 26.9741C3.60663 27.6881 3.68096 28.4361 3.98198 29.1039C4.10803 29.2425 4.26105 29.3539 4.43166 29.4312C4.60227 29.5086 4.78687 29.5502 4.97416 29.5537C5.62239 29.5934 6.27061 29.6066 6.93206 29.6066C7.48769 29.6066 8.05654 29.5934 8.61216 29.5934L9.6308 29.567C10.4378 29.5405 11.2447 29.514 12.0253 29.514L11.9988 29.4082V29.3817L12.1575 29.514C12.1575 29.514 30.1491 29.6066 35.2687 29.6199C36.7239 29.6331 39.0126 29.6331 40.4678 29.6331C40.6478 29.6328 40.8206 29.562 40.9492 29.4359C41.0778 29.3098 41.1519 29.1384 41.1557 28.9584L41.1027 21.7089C41.1027 21.1797 41.1292 20.6506 41.1557 20.0685C41.1821 19.6319 41.2086 19.1821 41.2086 18.7456C41.2113 18.6305 41.2201 18.5157 41.235 18.4016L41.2483 18.1767C41.3719 17.4495 41.3082 16.7028 41.0631 16.0072ZM40.1635 21.4708C40.1635 23.7594 40.1635 26.1142 40.1238 28.4425L40.1635 28.6012H39.9518C32.279 28.5351 23.6271 28.4954 16.0734 28.4689L5.09322 28.416L4.96093 28.4293L4.77573 28.416V28.0853C4.78896 26.855 4.78896 25.6115 4.78896 24.3282L4.80219 22.4233C4.81541 20.4786 4.81541 18.5075 4.84187 16.5628L4.81541 16.3908H5.01385C12.7925 16.4702 20.7035 16.4966 28.3632 16.5231L37.4648 16.5628C38.2982 16.5628 39.0787 16.5628 40.018 16.576L40.1899 16.5495L40.1635 21.4708Z" fill="#828A90"/>
    <path d="M40.1635 21.4721C40.1635 23.7607 40.1635 26.1155 40.1238 28.4438L40.1635 28.6026H39.9518C32.2789 28.5364 23.6271 28.4967 16.0733 28.4703L5.09319 28.4174L4.9609 28.4306L4.7757 28.4174V28.0866C4.78892 26.8563 4.78892 25.6128 4.78892 24.3296L4.80215 22.4246C4.81538 20.4799 4.81538 18.5088 4.84184 16.5641L4.81538 16.3922H5.01382C12.7925 16.4715 20.7035 16.498 28.3631 16.5244L37.4647 16.5641C38.2982 16.5641 39.0787 16.5641 40.0179 16.5774L40.1899 16.5509L40.1635 21.4721Z" fill="#DAF0ED"/>
</svg>
