<svg width="43" height="43" viewBox="0 0 43 43" fill="none" xmlns="http://www.w3.org/2000/svg">
    <path d="M36.5012 8.34314C35.3278 7.14011 33.7632 6.39591 32.0894 6.24472C30.6484 6.20679 29.2831 6.19415 27.9179 6.19415L23.2533 6.20679L13.823 6.23208L11.2316 6.25736C10.2324 6.29536 9.25334 6.54983 8.36208 7.00318C7.01126 7.73202 5.92485 8.86849 5.25755 10.2507C4.59026 11.633 4.3761 13.1906 4.64559 14.7016C4.83121 15.6055 5.19653 16.4629 5.71986 17.223C6.24319 17.983 6.91387 18.6301 7.6921 19.126C8.43396 19.5933 9.254 19.9231 10.1129 20.0994C10.5388 20.1746 10.9699 20.2169 11.4023 20.2258H31.4763C32.4116 20.2242 33.3372 20.0357 34.1986 19.6713C35.06 19.3069 35.8398 18.774 36.4923 18.1038C37.1448 17.4337 37.6567 16.6399 37.9979 15.7691C38.3392 14.8983 38.5029 13.968 38.4795 13.033C38.4337 11.2765 37.7273 9.60177 36.5012 8.34314ZM35.5657 16.9517C34.6004 18.0045 33.2626 18.6394 31.8366 18.7215L12.7359 18.7089H11.5476C11.1913 18.7077 10.8359 18.6739 10.4858 18.6077C9.79835 18.4886 9.14112 18.2352 8.55169 17.8619C7.31732 17.0877 6.44004 15.8558 6.11196 14.4362C5.92407 13.7096 5.88963 12.9519 6.01083 12.2113C6.14966 11.4936 6.42883 10.8104 6.83231 10.2008C7.23579 9.59127 7.75566 9.06736 8.36208 8.65917C8.96106 8.26213 9.6304 7.98324 10.3341 7.8375C10.684 7.7684 11.0393 7.73033 11.3959 7.72373L31.6028 7.6403C33.0372 7.66323 34.4064 8.24355 35.4204 9.25836C36.4381 10.2719 37.0228 11.6409 37.0511 13.0769C37.0794 14.513 36.5491 15.904 35.5721 16.9568L35.5657 16.9517Z" fill="#828A90"/>
    <path d="M37.0448 13.076C37.0713 14.512 36.5413 15.9027 35.5658 16.9568C34.6004 18.0096 33.2626 18.6445 31.8366 18.7266L12.7359 18.7139H11.5477C11.1913 18.7128 10.8359 18.679 10.4858 18.6128C9.79836 18.4937 9.14114 18.2403 8.55171 17.867C7.31733 17.0927 6.44005 15.8609 6.11197 14.4412C5.92408 13.7147 5.88964 12.957 6.01084 12.2164C6.14968 11.4987 6.42884 10.8155 6.83232 10.2059C7.23581 9.59635 7.75567 9.07244 8.36209 8.66425C8.96107 8.26721 9.63042 7.98832 10.3341 7.84258C10.684 7.77348 11.0393 7.73541 11.396 7.72881L31.6028 7.64032C33.0372 7.66326 34.4064 8.24357 35.4204 9.25838C36.4315 10.2754 37.0131 11.6422 37.0448 13.076Z" fill="white"/>
    <path d="M38.3594 28.3161C38.1713 27.4115 37.8036 26.5539 37.2782 25.7939C36.7527 25.034 36.0802 24.3871 35.3003 23.8917C34.5626 23.4208 33.7439 23.0907 32.8858 22.9183C32.4599 22.8437 32.0288 22.8015 31.5965 22.7919H11.5224C10.5873 22.7922 9.66176 22.98 8.80049 23.3441C7.93922 23.7083 7.15969 24.2414 6.50798 24.9119C5.85628 25.5825 5.34562 26.3769 5.0062 27.2482C4.66677 28.1195 4.50547 29.05 4.53183 29.9847C4.57651 31.7027 5.25191 33.3442 6.42926 34.5962C7.60662 35.8481 9.20356 36.623 10.9156 36.773C12.344 36.8109 13.7219 36.8236 15.0872 36.8236L19.7517 36.8109L29.1694 36.7856L31.7608 36.7604C32.7643 36.724 33.7478 36.4695 34.643 36.0145C35.9938 35.2857 37.0802 34.1492 37.7475 32.767C38.4148 31.3847 38.6289 29.8272 38.3594 28.3161ZM36.9942 30.8064C36.8529 31.5248 36.5714 32.2083 36.1658 32.8178C35.7602 33.4273 35.2384 33.9508 34.6303 34.3586C33.7324 34.9606 32.6775 35.2859 31.5965 35.294L20.8389 35.3446L11.396 35.3825C9.96344 35.3534 8.59768 34.7714 7.58453 33.7582C6.57138 32.7451 5.98936 31.3793 5.96028 29.9468C5.92754 28.5159 6.45043 27.128 7.41917 26.0744C8.38792 25.0208 9.72717 24.3835 11.1558 24.2962L20.6745 24.3089H31.4574C31.8095 24.31 32.1608 24.3438 32.5066 24.41C33.1974 24.5313 33.8583 24.7845 34.4533 25.1558C35.6807 25.9348 36.5525 27.1653 36.8804 28.5816C37.0834 29.3072 37.1222 30.0689 36.9942 30.8115V30.8064Z" fill="#828A90"/>
    <path d="M36.9942 30.8114C36.8529 31.5298 36.5714 32.2133 36.1658 32.8228C35.7602 33.4323 35.2384 33.9559 34.6303 34.3636C33.7324 34.9657 32.6775 35.2909 31.5965 35.299L20.8389 35.3496L11.396 35.3875C9.96346 35.3584 8.5977 34.7764 7.58455 33.7633C6.5714 32.7501 5.98938 31.3844 5.9603 29.9518C5.92756 28.521 6.45045 27.133 7.41919 26.0794C8.38793 25.0258 9.72719 24.3885 11.1558 24.3013L20.6745 24.3139H31.4574C31.8095 24.315 32.1608 24.3489 32.5066 24.415C33.1974 24.5363 33.8584 24.7896 34.4534 25.1609C35.6807 25.9399 36.5525 27.1703 36.8804 28.5866C37.0826 29.3106 37.1215 30.0706 36.9942 30.8114Z" fill="white"/>
    <path d="M28.3591 13.3503C28.3314 12.8127 28.4861 12.2814 28.7982 11.8427C29.1102 11.404 29.5613 11.0836 30.0783 10.9333C30.3982 10.84 30.734 10.8135 31.0646 10.8555C31.3953 10.8974 31.7138 11.0069 32.0003 11.1772C32.2868 11.3474 32.5353 11.5748 32.7303 11.8451C32.9252 12.1154 33.0625 12.423 33.1336 12.7486C33.7745 15.8823 28.5272 16.68 28.3565 13.3503C28.3262 12.7562 27.4021 12.7499 27.4262 13.3503C27.4374 13.8203 27.55 14.2823 27.7563 14.7047C27.9626 15.1272 28.2576 15.5001 28.6213 15.798C28.985 16.0959 29.4087 16.3118 29.8635 16.4308C30.3183 16.5499 30.7934 16.5693 31.2564 16.4878C32.1048 16.3534 32.8703 15.9015 33.3978 15.2235C33.9252 14.5456 34.1751 13.6925 34.0969 12.8371C33.9859 11.9862 33.5528 11.2102 32.8867 10.6692C32.2207 10.1281 31.3724 9.8632 30.5169 9.929C29.6613 9.9948 28.8635 10.3863 28.288 11.0229C27.7125 11.6594 27.4031 12.4924 27.4236 13.3503C27.4236 13.4744 27.4729 13.5933 27.5606 13.681C27.6483 13.7688 27.7673 13.818 27.8913 13.818C28.0154 13.818 28.1344 13.7688 28.2221 13.681C28.3098 13.5933 28.3591 13.4744 28.3591 13.3503Z" fill="#828A90"/>
    <path d="M27.6031 13.3642C27.5919 12.9454 27.6637 12.5285 27.8144 12.1376C27.9652 11.7467 28.1919 11.3896 28.4814 11.0868C28.771 10.784 29.1177 10.5416 29.5014 10.3736C29.8852 10.2055 30.2985 10.1152 30.7174 10.1077C31.1363 10.1003 31.5525 10.1759 31.942 10.3303C32.3315 10.4846 32.6865 10.7146 32.9866 11.0069C33.2867 11.2992 33.526 11.6481 33.6905 12.0334C33.855 12.4187 33.9416 12.8328 33.9452 13.2517C33.9108 14.0523 33.5785 14.8112 33.0135 15.3795C32.4485 15.9478 31.6915 16.2845 30.8911 16.3235C30.4754 16.3718 30.0542 16.331 29.6556 16.2039C29.2569 16.0768 28.8898 15.8663 28.5788 15.5864C28.2677 15.3065 28.0199 14.9635 27.8517 14.5804C27.6834 14.1972 27.5987 13.7826 27.6031 13.3642Z" fill="#DAF0ED"/>
    <path d="M28.2238 13.3642C28.1924 12.7958 28.3545 12.2335 28.6837 11.7691C29.0129 11.3047 29.4898 10.9655 30.0365 10.8069C30.3751 10.708 30.7305 10.6799 31.0804 10.7244C31.4303 10.7689 31.7673 10.8851 32.0704 11.0656C32.3734 11.2461 32.636 11.4872 32.8418 11.7737C33.0476 12.0602 33.1921 12.386 33.2663 12.7309C33.9325 16.0327 28.4033 16.8658 28.22 13.3629C28.1783 12.5754 26.9559 12.5665 26.9875 13.3629C26.9997 13.8949 27.1267 14.4179 27.3597 14.8963C27.5927 15.3747 27.9263 15.7971 28.3377 16.1346C28.749 16.4721 29.2284 16.7168 29.7431 16.852C30.2577 16.9871 30.7955 17.0095 31.3196 16.9176C32.2778 16.7661 33.1428 16.2564 33.7397 15.4917C34.3367 14.727 34.6211 13.7642 34.5355 12.7979C34.4122 11.8345 33.924 10.9551 33.1714 10.341C32.4189 9.72698 31.4595 9.42505 30.4909 9.49751C29.5224 9.56997 28.6185 10.0113 27.9657 10.7305C27.313 11.4497 26.961 12.3919 26.9824 13.3629C26.9823 13.5275 27.0475 13.6855 27.1638 13.802C27.2801 13.9185 27.4379 13.9841 27.6025 13.9842C27.7671 13.9844 27.925 13.9192 28.0415 13.8029C28.1581 13.6866 28.2236 13.5288 28.2238 13.3642Z" fill="#828A90"/>
    <path d="M14.6396 29.6775C14.6677 30.2152 14.5132 30.7466 14.2014 31.1855C13.8896 31.6245 13.4387 31.9452 12.9217 32.0958C12.6017 32.1889 12.2659 32.2152 11.9352 32.173C11.6046 32.1309 11.2861 32.0213 10.9996 31.851C10.7131 31.6806 10.4646 31.4532 10.2697 31.1828C10.0748 30.9124 9.93747 30.6049 9.86636 30.2792C9.22545 27.1468 14.4728 26.3479 14.6434 29.6775C14.6738 30.2729 15.5978 30.278 15.5738 29.6775C15.5617 29.208 15.4484 28.7465 15.2417 28.3248C15.0349 27.903 14.7396 27.5308 14.3759 27.2335C14.0122 26.9363 13.5886 26.721 13.1341 26.6024C12.6796 26.4838 12.2049 26.4647 11.7423 26.5463C10.8942 26.6807 10.1288 27.1325 9.60141 27.8102C9.07398 28.4878 8.8239 29.3406 8.90184 30.1958C9.00989 31.0493 9.442 31.8285 10.1087 32.3721C10.7754 32.9157 11.6257 33.1821 12.4834 33.1162C13.3411 33.0502 14.1406 32.657 14.7164 32.0178C15.2921 31.3786 15.6 30.5425 15.5763 29.6826C15.594 29.0745 14.6637 29.0745 14.6396 29.6775Z" fill="#828A90"/>
    <path d="M15.3969 29.6636C15.4246 30.0874 15.3637 30.5124 15.2181 30.9114C15.0726 31.3104 14.8455 31.6747 14.5515 31.9811C14.2574 32.2875 13.9027 32.5294 13.5101 32.6913C13.1174 32.8531 12.6953 32.9314 12.2707 32.9212C11.8493 32.9404 11.4285 32.8727 11.0343 32.7224C10.6402 32.572 10.2811 32.3423 9.97953 32.0473C9.67794 31.7523 9.44022 31.3985 9.28114 31.0078C9.12207 30.6171 9.04504 30.1979 9.05483 29.7761C9.08919 28.9755 9.42147 28.2166 9.98649 27.6483C10.5515 27.08 11.3085 26.7433 12.1089 26.7043C12.5246 26.656 12.9458 26.6968 13.3444 26.8239C13.7431 26.951 14.1102 27.1615 14.4212 27.4414C14.7323 27.7214 14.9801 28.0643 15.1483 28.4475C15.3166 28.8306 15.4013 29.2452 15.3969 29.6636Z" fill="#F9C3C7"/>
    <path d="M14.7762 29.6636C14.8061 30.2319 14.6434 30.7936 14.3144 31.2579C13.9854 31.7222 13.5095 32.0619 12.9635 32.2222C12.6249 32.3209 12.2696 32.3488 11.9197 32.3042C11.5699 32.2596 11.2329 32.1435 10.9299 31.963C10.6269 31.7825 10.3643 31.5415 10.1585 31.2551C9.95271 30.9687 9.80809 30.643 9.73367 30.2982C9.06875 26.9964 14.598 26.162 14.7813 29.6662C14.823 30.455 16.0454 30.4625 16.0138 29.6662C16.0019 29.1338 15.8752 28.6104 15.6423 28.1316C15.4093 27.6528 15.0757 27.2301 14.6641 26.8922C14.2526 26.5544 13.7729 26.3095 13.2579 26.1743C12.7429 26.0391 12.2048 26.0168 11.6804 26.1089C10.723 26.2614 9.85907 26.7714 9.26311 27.5361C8.66715 28.3007 8.38354 29.263 8.46956 30.2287C8.59556 31.1897 9.08475 32.066 9.83666 32.6776C10.5886 33.2893 11.5461 33.5898 12.5127 33.5174C13.4792 33.4451 14.3814 33.0055 15.0339 32.2888C15.6864 31.572 16.0398 30.6327 16.0214 29.6636C16.0403 28.866 14.8002 28.866 14.7762 29.6636Z" fill="#828A90"/>
</svg>
