<svg width="47" height="47" viewBox="0 0 47 47" fill="none" xmlns="http://www.w3.org/2000/svg">
    <path d="M6.77033 13.2367L6.75513 12.684C6.70539 11.1503 6.65012 9.41215 8.23632 8.63978C8.6927 8.44537 9.18764 8.35838 9.68296 8.38555L10.3365 8.39384C10.3365 8.39384 15.7597 8.3814 17.8433 8.37311C23.9817 8.35837 30.1197 8.34962 36.2573 8.34686L37.2535 8.33719C37.4165 8.33719 37.5795 8.33719 37.7426 8.34686C40.4189 8.49608 40.383 10.9528 40.354 12.9272V13.274L6.77033 13.2367Z" fill="#DAF0ED"/>
    <path d="M33.6044 38.6172H9.4025C9.33614 38.5906 9.26638 38.5734 9.19525 38.5661C6.83806 38.4279 6.646 36.4935 6.65015 34.6877L6.76345 13.8557H6.90162C14.6217 13.8557 22.3421 13.8493 30.0631 13.8364L40.3374 13.8239C40.3374 13.8239 40.3374 28.318 40.3374 35.4946C40.3775 35.8948 40.332 36.2991 40.2041 36.6804C40.0762 37.0618 39.8687 37.4117 39.5955 37.7069C39.3222 38.0021 38.9894 38.2359 38.619 38.3929C38.2486 38.5498 37.8491 38.6263 37.4469 38.6172C37.0186 38.6269 36.5903 38.6297 36.1619 38.6297L33.6044 38.6172ZM23.2126 17.9069C21.5838 17.8291 19.9792 18.3245 18.6778 19.3069C17.3763 20.2893 16.4601 21.6967 16.0886 23.2845C15.4392 26.3795 16.2019 30.4983 19.4046 32.2255C20.6205 32.8744 21.9782 33.2119 23.3563 33.2079C24.3543 33.2309 25.3466 33.0508 26.273 32.6786C27.1993 32.3065 28.0403 31.7499 28.745 31.0427C29.5786 30.1717 30.2112 29.1287 30.5984 27.9869C30.9856 26.8452 31.1179 25.6324 30.9861 24.434C30.7043 22.6161 29.7812 20.9591 28.3838 19.7627C26.9864 18.5663 25.207 17.9094 23.3674 17.911H23.214V17.7729L23.2126 17.9069Z" fill="white"/>
    <path d="M23.3964 32.64C22.6118 32.6372 21.8312 32.527 21.0765 32.3125C18.1597 31.4904 16.4257 28.8458 16.4368 25.2354C16.3955 24.3383 16.5421 23.4423 16.8672 22.6051C17.1923 21.7679 17.6888 21.0079 18.3248 20.3737C18.9607 19.7395 19.7222 19.2452 20.5604 18.9225C21.3985 18.5998 22.2948 18.4558 23.1919 18.4996C23.24 18.5002 23.2875 18.4888 23.3301 18.4665C24.8915 18.4493 26.4163 18.9397 27.6749 19.864C28.9336 20.7882 29.858 22.0962 30.3091 23.5912C30.7484 25.5384 30.4266 27.58 29.4096 29.2976C28.792 30.3364 27.9102 31.193 26.8539 31.7801C25.7976 32.3672 24.6046 32.6639 23.3964 32.64ZM21.5546 21.777C21.5174 21.7772 21.4807 21.7852 21.4468 21.8005C21.3837 21.8114 21.3272 21.8462 21.2891 21.8977C21.251 21.9491 21.2343 22.0133 21.2423 22.0769C21.3225 24.3967 21.328 26.7553 21.3335 29.0365C21.3292 29.0834 21.3342 29.1307 21.3483 29.1756C21.3623 29.2205 21.3852 29.2622 21.4156 29.2982C21.4459 29.3342 21.4831 29.3638 21.525 29.3853C21.5669 29.4068 21.6126 29.4197 21.6596 29.4234C21.7113 29.4238 21.762 29.4084 21.8047 29.3792L27.5346 25.6278C27.5841 25.5962 27.6245 25.5521 27.6517 25.5C27.6788 25.4478 27.6918 25.3895 27.6893 25.3308C27.689 25.2819 27.6753 25.2341 27.6497 25.1924C27.6242 25.1508 27.5877 25.1169 27.5443 25.0945L21.6927 21.813C21.6504 21.7898 21.6029 21.7774 21.5546 21.777Z" fill="#DAF0ED"/>
    <path d="M21.9691 28.2558C21.9691 26.5508 21.958 24.7145 21.8724 22.8423L21.8613 22.5922L26.7898 25.3708L22.0133 28.4824L21.9691 28.2558Z" fill="white"/>
    <path d="M35.934 39.4407C35.4089 39.4407 34.8866 39.4214 34.3934 39.4006C33.849 39.3785 33.4262 39.3619 33.0365 39.3606H9.4329C9.37106 39.3975 9.30042 39.4171 9.2284 39.4172C7.0688 39.2901 5.78796 37.7495 5.80593 35.2942C5.846 28.1094 5.93719 13.5932 5.93719 13.5932L5.92752 13.455C5.92752 13.2132 5.92752 12.9604 5.91646 12.7061C5.87778 11.0536 5.83771 9.36518 7.25948 8.26949C8.13994 7.69298 9.19398 7.44181 10.2398 7.55929L18.4084 7.57864C22.3214 7.58969 26.233 7.5966 30.1432 7.59936L34.9156 7.59107C35.7447 7.59107 36.5686 7.59522 37.3875 7.60351C37.9547 7.56988 38.5218 7.67076 39.0426 7.8979C39.5634 8.12505 40.0232 8.47204 40.3844 8.9106C41.0559 10.051 41.3121 11.3886 41.1098 12.6965C41.0988 12.9825 41.0905 13.2491 41.0891 13.5006C41.0891 17.672 41.0891 21.7908 41.0891 25.9152C41.0891 27.0206 41.114 28.1259 41.1388 29.2451C41.19 31.5387 41.2411 33.8987 41.0739 36.1799C40.8735 39.0704 38.2221 39.4407 35.934 39.4407ZM33.6044 38.4113L36.1661 38.4238C36.5944 38.4238 37.02 38.4238 37.4455 38.4113C37.8214 38.4228 38.1954 38.3533 38.5421 38.2077C38.8888 38.062 39.2002 37.8436 39.4551 37.5671C39.7101 37.2907 39.9027 36.9627 40.0198 36.6054C40.137 36.248 40.1761 35.8697 40.1343 35.4959C40.1343 28.3645 40.1343 21.2331 40.1343 14.1017L30.0479 14.045C22.3767 14.0542 14.7078 14.0602 7.04117 14.063L6.86155 34.6904C6.86155 36.477 7.03426 38.2331 9.21044 38.3602C9.28746 38.3661 9.36281 38.3858 9.4329 38.4182L19.3439 38.4113H33.6044ZM9.68298 8.59281C9.21889 8.56745 8.75507 8.64727 8.32615 8.82632C6.86155 9.54066 6.91543 11.207 6.96241 12.6771L6.9707 12.9631L40.1454 13.064V12.9258C40.1744 10.9431 40.2062 8.69505 37.7316 8.55688C37.5713 8.54859 37.4124 8.54583 37.2521 8.54583L36.2849 8.55688C30.1207 8.56241 23.9744 8.5707 17.8461 8.58175C15.7611 8.59143 10.016 8.59972 10.016 8.59972L9.68298 8.59281Z" fill="#828A90"/>
    <path d="M23.3591 33.4151C21.9464 33.4198 20.5547 33.0732 19.3093 32.4064C16.0084 30.6296 15.2195 26.4099 15.8827 23.243C16.2614 21.6107 17.1998 20.1626 18.535 19.1502C19.8703 18.1378 21.5179 17.625 23.1919 17.701L23.3301 17.7217C25.2303 17.6873 27.0777 18.348 28.5252 19.5797C29.9726 20.8114 30.9205 22.5292 31.1906 24.4105C31.3249 25.6383 31.1888 26.8807 30.7919 28.0503C30.3949 29.2199 29.7467 30.2885 28.8928 31.1809C28.1663 31.9039 27.3024 32.4741 26.352 32.8578C25.4015 33.2415 24.3839 33.431 23.3591 33.4151ZM23.4005 18.6626C23.3354 18.6919 23.2646 18.7065 23.1933 18.7055C22.3237 18.663 21.4548 18.8026 20.6423 19.1155C19.8298 19.4284 19.0917 19.9076 18.4752 20.5224C17.8588 21.1372 17.3775 21.874 17.0624 22.6856C16.7473 23.4972 16.6053 24.3657 16.6454 25.2354C16.6329 28.7477 18.3103 31.3149 21.1318 32.1121C21.8685 32.3219 22.6304 32.4297 23.3964 32.4327C24.5687 32.4559 25.7263 32.1679 26.751 31.598C27.7758 31.0281 28.6312 30.1966 29.2299 29.1885C30.2203 27.5182 30.5337 25.5322 30.1059 23.6382C29.6677 22.2056 28.7843 20.9499 27.584 20.0535C26.3837 19.157 24.929 18.6665 23.4309 18.653H23.4143L23.4005 18.6626Z" fill="#828A90"/>
    <path d="M21.6637 29.6265C21.5238 29.6217 21.3909 29.5639 21.2919 29.4649C21.1929 29.3659 21.1352 29.233 21.1304 29.0931C21.1304 26.7802 21.1193 24.3953 21.0378 22.0768C21.03 21.9707 21.0597 21.8652 21.1219 21.7788C21.184 21.6924 21.2746 21.6306 21.3777 21.6043C21.4354 21.5818 21.4968 21.5701 21.5587 21.5698C21.6413 21.5697 21.7226 21.5907 21.795 21.6306L27.6479 24.908C27.7236 24.9477 27.7871 25.0073 27.8316 25.0803C27.8761 25.1533 27.9 25.237 27.9007 25.3225C27.9035 25.4168 27.8821 25.5102 27.8386 25.5939C27.7951 25.6775 27.7308 25.7487 27.652 25.8005L21.9221 29.5519C21.845 29.6012 21.7553 29.6271 21.6637 29.6265ZM22.0907 23.08C22.1639 24.8375 22.1749 26.5536 22.1763 28.0002L26.2952 25.4441L22.0865 22.957L22.0907 23.08Z" fill="#828A90"/>
</svg>
